<?xml version="1.0" encoding="UTF-8"?>
<svg version="1.1" xmlns="http://www.w3.org/2000/svg" width="1080" height="1080">
<path d="M0 0 C1.43974363 -0.00258686 2.87948654 -0.00560091 4.31922847 -0.0090034 C8.26256682 -0.01703956 12.20588694 -0.01886109 16.14923251 -0.01960087 C20.40788864 -0.02145744 24.66653545 -0.02900801 28.92518616 -0.03573608 C38.23367553 -0.04929791 47.54216058 -0.05534134 56.85065818 -0.05974674 C62.67082354 -0.06251394 68.49098726 -0.06675227 74.3111515 -0.07125092 C90.44646824 -0.08344293 106.58178367 -0.09374098 122.71710491 -0.09712601 C123.74917269 -0.09734557 124.78124047 -0.09756514 125.84458302 -0.09779136 C126.87904032 -0.09800964 127.91349762 -0.09822791 128.97930211 -0.09845281 C131.07529748 -0.09889626 133.17129284 -0.09934283 135.26728821 -0.09979248 C136.30696146 -0.10001391 137.34663472 -0.10023534 138.41781322 -0.10046348 C155.23873946 -0.10440577 172.05962222 -0.12184271 188.88053169 -0.145152 C206.1779879 -0.1689267 223.47542236 -0.18133071 240.77289516 -0.18249393 C250.47341423 -0.18340748 260.17387672 -0.18907854 269.87438011 -0.20731354 C278.14031801 -0.22279762 286.40618184 -0.22778657 294.6721315 -0.21957543 C298.88132337 -0.21569752 303.09036649 -0.21645644 307.29953957 -0.23063278 C330.12876736 -0.30298027 352.20578889 0.03921111 373.85395813 8.14044189 C374.53377747 8.39309814 375.2135968 8.64575439 375.91401672 8.90606689 C394.65000684 15.98902633 410.49483259 25.26632108 425.85395813 38.14044189 C426.43016907 38.61739502 427.00638 39.09434814 427.60005188 39.58575439 C457.02780433 64.19282368 475.30504213 102.79699764 479.37562561 140.61714172 C480.16316325 149.50758855 480.01034587 158.4316445 480.01509094 167.34918213 C480.01972659 169.3872944 480.02475224 171.42540581 480.03013611 173.46351624 C480.04319176 178.97642829 480.04969186 184.48932821 480.05414677 190.00225329 C480.05708908 193.45601801 480.06119605 196.90977949 480.06565094 200.36354256 C480.07930899 211.19710696 480.08898344 222.03066388 480.09285283 232.8642363 C480.09732702 245.31849538 480.11485244 257.77264436 480.14385343 270.22687 C480.16555906 279.88762393 480.17556186 289.54834708 480.17689395 299.2091251 C480.1779358 304.96309824 480.18371005 310.71696764 480.20171356 316.47091484 C480.21834824 321.89240179 480.22027608 327.31370874 480.21157455 332.73521233 C480.21081229 334.70865872 480.21503764 336.68211542 480.22503281 338.65553665 C480.31491771 357.5315993 478.31255871 375.32346464 471.85395813 393.14044189 C471.47497375 394.21092773 471.47497375 394.21092773 471.08833313 395.30303955 C465.23765262 411.68996395 457.85548792 426.5927895 446.85395813 440.14044189 C446.07665344 441.13173096 445.29934875 442.12302002 444.49848938 443.14434814 C440.57843782 448.07560228 436.76901616 452.23073665 431.85395813 456.14044189 C431.09470032 457.07630127 430.3354425 458.01216064 429.55317688 458.97637939 C409.35799663 483.61899544 369.41988312 497.67533639 338.92082858 500.95866132 C332.59415994 501.51508975 326.23672211 501.4231235 319.89131165 501.41168213 C318.25005336 501.41608238 316.60879729 501.42138918 314.96754456 501.42752075 C311.46466272 501.43891996 307.96184056 501.44447266 304.45894051 501.44540215 C298.90427415 501.44736313 293.34972914 501.46552534 287.79510498 501.48616028 C274.00351814 501.53506938 260.21189879 501.56618646 246.42024231 501.58746338 C235.68539884 501.60404579 224.95066123 501.62700786 214.21588844 501.67048413 C208.7099668 501.6920849 203.2042472 501.70033505 197.69828618 501.69809139 C194.25584027 501.69977416 190.81352327 501.713919 187.37112427 501.73130417 C185.79269803 501.73683844 184.21424432 501.73745031 182.63581657 501.73236656 C157.44304849 501.65982037 136.42800478 507.8376253 117.41499329 524.76934814 C114.96923535 526.91751464 112.44332868 528.96385552 109.91645813 531.01544189 C107.00847907 533.37658524 104.1281033 535.75684932 101.29145813 538.20294189 C98.85395813 540.14044189 98.85395813 540.14044189 96.85395813 540.14044189 C96.63610657 540.70634033 96.418255 541.27223877 96.19380188 541.85528564 C94.41876382 544.88268291 92.17074809 546.54120834 89.41645813 548.70294189 C85.63078354 551.65128833 85.63078354 551.65128833 82.13130188 554.91778564 C80.85395813 556.14044189 80.85395813 556.14044189 78.85395813 556.14044189 C78.85395813 556.80044189 78.85395813 557.46044189 78.85395813 558.14044189 C76.68103483 559.988915 74.49993145 561.73257679 72.22895813 563.45294189 C70.98609816 564.40649312 69.74390511 565.36091427 68.50239563 566.31622314 C67.58659729 567.02005127 67.58659729 567.02005127 66.65229797 567.73809814 C63.10442249 570.50472817 59.66352041 573.33087961 56.47895813 576.51544189 C53.7038385 579.29056153 50.79666658 581.84105029 47.81880188 584.39434814 C46.47769963 585.58614279 45.17745507 586.82512846 43.91645813 588.10137939 C41.6910946 590.3014547 39.35452704 592.24148796 36.91645813 594.20294189 C33.71972351 596.79036602 30.543983 599.39097083 27.42036438 602.06622314 C26.84729553 602.55663086 26.27422668 603.04703857 25.68379211 603.55230713 C24.5726839 604.50589033 23.46399488 605.46230186 22.35810852 606.42193604 C16.14416395 611.74636685 11.57783269 614.27134429 3.41645813 614.32794189 C2.48962219 614.34212158 1.56278625 614.35630127 0.60786438 614.37091064 C-5.67848146 613.84481929 -10.65611181 610.38688334 -15.14604187 606.14044189 C-19.27915563 598.80749812 -19.29447311 591.00727694 -19.25956726 582.80865479 C-19.25971329 581.90055054 -19.25985931 580.99244629 -19.26000977 580.05682373 C-19.25931688 577.07555699 -19.25155386 574.09435388 -19.24369812 571.11309814 C-19.24183172 569.03802016 -19.24040887 566.96294174 -19.2394104 564.88786316 C-19.2356027 559.44140392 -19.2257874 553.9949716 -19.21470642 548.54852295 C-19.20445467 542.98476526 -19.19990473 537.4210032 -19.19487 531.85723877 C-19.1841635 520.95162803 -19.16710815 510.0460372 -19.14604187 499.14044189 C-19.81113266 499.08257507 -20.47622345 499.02470825 -21.16146851 498.96508789 C-29.95181696 498.15289613 -29.95181696 498.15289613 -34.04057312 496.90606689 C-34.84398132 496.66452881 -35.64738953 496.42299072 -36.47514343 496.1741333 C-37.70442566 495.78620605 -37.70442566 495.78620605 -38.95854187 495.39044189 C-39.83091492 495.12022217 -40.70328796 494.85000244 -41.60209656 494.57159424 C-58.26693561 489.33803388 -74.14461087 482.71623543 -88.14604187 472.14044189 C-90.10304726 470.72194135 -92.06140501 469.30530487 -94.02104187 467.89044189 C-95.73169105 466.64361305 -97.44024587 465.39390222 -99.14604187 464.14044189 C-99.911745 463.60934814 -100.67744812 463.07825439 -101.46635437 462.53106689 C-102.02065125 462.07216064 -102.57494812 461.61325439 -103.14604187 461.14044189 C-103.14604187 460.48044189 -103.14604187 459.82044189 -103.14604187 459.14044189 C-103.80604187 459.14044189 -104.46604187 459.14044189 -105.14604187 459.14044189 C-106.34349813 458.01141171 -107.53169562 456.8708437 -108.66947937 455.68170166 C-110.22939411 454.05343748 -111.84203954 452.48976958 -113.45854187 450.91778564 C-145.42770801 418.9486195 -157.24747758 373.4266208 -157.28157043 329.51499939 C-157.27962711 327.9446715 -157.277579 326.37434374 -157.2754364 324.80401611 C-157.27679501 323.11028506 -157.27857751 321.41655431 -157.28074646 319.7228241 C-157.2852682 315.16253086 -157.2835525 310.6022605 -157.28036737 306.04196692 C-157.2778139 301.23739917 -157.2801898 296.43283322 -157.28175354 291.62826538 C-157.28356763 283.55712538 -157.28119004 275.48599456 -157.27641296 267.41485596 C-157.27098291 258.13436197 -157.27272694 248.85389001 -157.27823937 239.57339656 C-157.28280554 231.56012723 -157.2834037 223.54686446 -157.2808007 215.53359425 C-157.27925565 210.76786446 -157.27899457 206.00214495 -157.28233719 201.23641586 C-157.3125675 151.21666079 -157.3125675 151.21666079 -154.39604187 134.89044189 C-154.21903748 133.87868896 -154.04203308 132.86693604 -153.85966492 131.82452393 C-152.30447453 123.32678506 -150.19412189 115.23753374 -147.14604187 107.14044189 C-146.83006042 106.2923999 -146.51407898 105.44435791 -146.18852234 104.57061768 C-137.8003194 82.36516957 -126.43871018 64.41496592 -110.14604187 47.14044189 C-109.57498718 46.52813721 -109.0039325 45.91583252 -108.41557312 45.28497314 C-103.40445773 40.08341156 -97.79776179 35.62227227 -92.14604187 31.14044189 C-91.15990906 30.33606689 -91.15990906 30.33606689 -90.15385437 29.51544189 C-64.72988567 9.43814472 -31.96168341 -0.02303683 0 0 Z M-27.70854187 94.01544189 C-28.36145203 94.36276367 -29.01436218 94.71008545 -29.6870575 95.06793213 C-34.71551173 97.78542388 -39.59279212 100.67521769 -44.14604187 104.14044189 C-44.829245 104.65993408 -45.51244812 105.17942627 -46.21635437 105.71466064 C-51.64912854 110.14557342 -55.35144422 115.28965833 -59.14604187 121.14044189 C-59.58690125 121.74114502 -60.02776062 122.34184814 -60.48197937 122.96075439 C-65.29998647 129.80416576 -67.68800593 138.20824913 -70.14604187 146.14044189 C-70.32048765 146.67455846 -70.49493343 147.20867502 -70.67466545 147.75897694 C-71.3571772 151.20712952 -71.28332561 154.63125583 -71.27302551 158.13157654 C-71.2745855 158.94283204 -71.27614549 159.75408754 -71.27775276 160.58992654 C-71.28174515 163.31145463 -71.27857994 166.03292705 -71.2754364 168.75445557 C-71.27679119 170.7041375 -71.27857156 172.65381918 -71.28074646 174.60350037 C-71.28531065 179.90068874 -71.28353562 185.19785766 -71.28036737 190.49504638 C-71.27783964 196.03059807 -71.28018237 201.56614807 -71.28175354 207.10169983 C-71.28357356 216.39513448 -71.28117282 225.68856118 -71.27641296 234.98199463 C-71.27096587 245.7418259 -71.27273692 256.50163825 -71.27823937 267.26146907 C-71.28276953 276.48781757 -71.28342167 285.71416036 -71.2808007 294.94050962 C-71.27923801 300.45640296 -71.27904405 305.97228738 -71.28233719 311.48818016 C-71.28521466 316.66980316 -71.28324252 321.8514016 -71.27744293 327.03302193 C-71.27611487 328.94026015 -71.27651023 330.84750043 -71.2787056 332.75473785 C-71.28141518 335.34660636 -71.27803841 337.93839485 -71.27302551 340.53025818 C-71.27525623 341.29502462 -71.27748696 342.05979106 -71.27978528 342.84773225 C-71.57631985 346.28305686 -71.57631985 346.28305686 -70.14604187 349.14044189 C-70.10479187 350.43981689 -70.06354187 351.73919189 -70.02104187 353.07794189 C-68.52601465 369.54697192 -58.8139424 384.93925739 -47.14604187 396.14044189 C-46.15604187 396.47044189 -45.16604187 396.80044189 -44.14604187 397.14044189 C-44.14604187 397.80044189 -44.14604187 398.46044189 -44.14604187 399.14044189 C-25.65672797 413.58976791 -3.93343569 415.30330488 18.62971497 415.27415466 C19.9426193 415.27642022 21.25552363 415.27868578 22.60821295 415.28101999 C26.2094651 415.28707033 29.81069381 415.28701251 33.41194987 415.28582561 C37.31248876 415.28561988 41.21302045 415.29115647 45.11355591 415.29588318 C52.73777117 415.3041519 60.36197869 415.30693626 67.98619807 415.30749556 C74.18664129 415.3079723 80.38708199 415.31003493 86.58752441 415.31319618 C104.19723896 415.32199069 121.80694743 415.32661718 139.41666418 415.32586571 C140.83751189 415.32580577 140.83751189 415.32580577 142.2870636 415.32574463 C143.23546157 415.32570375 144.18385955 415.32566287 145.16099685 415.32562075 C160.53775911 415.32521412 175.9144969 415.33479109 191.29125208 415.348883 C207.10967822 415.3632645 222.92809244 415.37015227 238.74652529 415.36928922 C247.61561398 415.36895797 256.48467699 415.37167361 265.35375977 415.38246727 C272.90206011 415.39159542 280.4503231 415.39372838 287.99862659 415.38695785 C291.84444048 415.38370495 295.69018279 415.38359131 299.53598976 415.3923111 C303.71678043 415.4016925 307.89740716 415.39536848 312.07820129 415.38768005 C313.87619871 415.3953954 313.87619871 415.3953954 315.71051931 415.40326661 C338.03785787 415.3129924 358.79358268 409.98707974 375.06098938 394.05841064 C388.1812004 380.65346124 395.99547671 362.63341676 396.00785828 343.90257263 C396.01224053 343.08864668 396.01662278 342.27472072 396.02113783 341.43613034 C396.0344608 338.71671547 396.04069011 335.99733296 396.04682922 333.27789307 C396.05473559 331.32431901 396.06300487 329.3707464 396.0716095 327.41717529 C396.0977772 321.00593449 396.11313624 314.59468735 396.12739563 308.18341064 C396.13275828 305.97045704 396.1381358 303.75750347 396.14352798 301.54454994 C396.16515285 292.33204685 396.18388543 283.11954547 396.19515038 273.90702343 C396.21136225 260.73847211 396.24447762 247.5702171 396.30155122 234.40177745 C396.34037509 225.12503447 396.35979801 215.84837032 396.36507094 206.57154828 C396.36870858 201.04051113 396.38055948 195.50979038 396.41317368 189.97884178 C396.44347229 184.76581706 396.44948912 179.55329657 396.43778992 174.34020233 C396.43757096 172.43966342 396.44572585 170.5390996 396.46344376 168.63864326 C396.59770405 153.39241462 394.32128 139.42632469 387.10395813 125.76544189 C386.76598206 125.11317627 386.42800598 124.46091064 386.07978821 123.78887939 C376.63524781 106.2023446 360.49936307 95.92123386 342.10395813 89.26544189 C332.19675665 86.45398475 322.36677409 85.84710596 312.11784363 85.87301636 C310.77150314 85.86927083 309.42516483 85.86466575 308.07882988 85.85928571 C304.41235307 85.84715163 300.74596815 85.84730473 297.07947588 85.84967446 C293.11201125 85.85008508 289.14457513 85.83902023 285.17712402 85.82955933 C277.41626601 85.81300092 269.6554384 85.80745212 261.8945642 85.80633457 C255.58064122 85.8053816 249.2667282 85.80125893 242.95280838 85.79493332 C225.01951125 85.77733467 207.08623798 85.76809224 189.15293215 85.76959427 C188.18769846 85.76967418 187.22246477 85.76975409 186.22798157 85.76983643 C185.26155814 85.76991819 184.29513472 85.76999995 183.29942574 85.77008419 C167.64714707 85.77089661 151.99496475 85.75176647 136.34271394 85.72355969 C120.23956357 85.69477125 104.13646009 85.68102268 88.03328335 85.68274724 C79.00527506 85.68340911 69.97736777 85.67800652 60.94938278 85.65639114 C53.26131135 85.63810066 45.57338669 85.63389612 37.88530283 85.64740999 C33.97007155 85.65390033 30.0551212 85.65420116 26.13991737 85.63670349 C-1.6895507 85.16671868 -1.6895507 85.16671868 -27.70854187 94.01544189 Z " fill="#6D87FD" transform="translate(377.1460418701172,237.85955810546875)"/>
<path d="M0 0 C1.04449911 3.13349732 0.93423645 3.98968256 0 7 C0.66 7 1.32 7 2 7 C1 9 1 9 -0.4375 10.875 C-1.89347124 12.85512088 -2.96776501 14.77672464 -4 17 C-4.66 17 -5.32 17 -6 17 C-6.103125 17.721875 -6.20625 18.44375 -6.3125 19.1875 C-7.05986932 22.24491993 -8.28045189 24.38329635 -10 27 C-10.33 26.34 -10.66 25.68 -11 25 C-11.66 25.33 -12.32 25.66 -13 26 C-13.13277344 26.74121094 -13.26554687 27.48242188 -13.40234375 28.24609375 C-14.6267535 33.88798183 -19.2988999 39.24956641 -24.09765625 42.359375 C-25.4292976 42.98542604 -26.77603278 43.58049796 -28.13671875 44.140625 C-30.33225141 45.04728893 -30.33225141 45.04728893 -32.9375 47.5625 C-37.90715024 51.51793591 -43.77572655 52.99608493 -50 54 C-50.33 54.99 -50.66 55.98 -51 57 C-51.33 56.34 -51.66 55.68 -52 55 C-56.80276906 55.5430832 -56.80276906 55.5430832 -61.36991185 57.02465761 C-64.38628376 58.14324954 -66.68144225 58.24238073 -69.89391041 58.23047829 C-71.08125336 58.23097699 -72.2685963 58.23147569 -73.49191934 58.2319895 C-74.79249566 58.22227287 -76.09307197 58.21255624 -77.43305969 58.20254517 C-78.83155575 58.19928628 -80.23005411 58.19691296 -81.62855309 58.1953491 C-85.47105756 58.18848807 -89.31341179 58.16905552 -93.15585864 58.14758825 C-97.29961883 58.12663367 -101.44340698 58.11731203 -105.58720398 58.10658264 C-112.7664616 58.08639906 -119.94566051 58.05883351 -127.12487221 58.02626419 C-137.50482209 57.979185 -147.88478703 57.94322318 -158.26478937 57.90998094 C-175.10535199 57.85574638 -191.94586833 57.79251186 -208.78637695 57.72363281 C-225.14606251 57.65673961 -241.50575525 57.59407555 -257.86547852 57.53710938 C-258.8737694 57.53359693 -259.88206029 57.53008449 -260.92090545 57.52646561 C-265.97916812 57.50887097 -271.03743108 57.49135958 -276.09569418 57.47388959 C-318.06384798 57.32883422 -360.03193696 57.16917923 -402 57 C-402 55.68 -402 54.36 -402 53 C-401.30281416 53.00075944 -400.60562832 53.00151888 -399.88731563 53.00230134 C-358.53501624 53.04709077 -317.18271966 53.08138994 -275.83040088 53.10213066 C-270.86138049 53.10463197 -265.89236016 53.10722062 -260.92333984 53.10986328 C-259.93412809 53.1103879 -258.94491633 53.11091252 -257.92572846 53.11145304 C-241.92405921 53.12014753 -225.92240439 53.13591223 -209.92074369 53.15430559 C-193.49255671 53.17303126 -177.06437726 53.18412236 -160.63618004 53.18817699 C-150.50515031 53.19091652 -140.37416135 53.19955846 -130.24314417 53.21583293 C-123.28897448 53.22643274 -116.33482577 53.22959386 -109.3806486 53.22700275 C-105.37290894 53.22572612 -101.36524034 53.22763577 -97.35751343 53.23841095 C-93.67933621 53.24822724 -90.00127708 53.2485813 -86.32309414 53.24179779 C-84.3809263 53.24056814 -82.4387596 53.2491185 -80.49661243 53.25816262 C-57.97242271 53.18243112 -37.14751831 47.92968396 -20.7265625 31.8515625 C-12.86919042 23.63396706 -7.74076472 13.89471272 -4.01953125 3.17578125 C-3.68308594 2.45777344 -3.34664062 1.73976563 -3 1 C-1.515 0.505 -1.515 0.505 0 0 Z " fill="#8B82F6" transform="translate(773,599)"/>
<path d="M0 0 C3.86118373 3.86118373 3.11572091 10.0873249 3.1430676 15.30668133 C3.14220112 16.08974819 3.14133463 16.87281505 3.14044189 17.67961121 C3.14489858 18.95373469 3.14489858 18.95373469 3.1494453 20.25359803 C3.15808578 23.08728837 3.15963663 25.92093623 3.16113281 28.75463867 C3.16576455 30.79216094 3.17078969 32.82968235 3.17617798 34.86720276 C3.18927605 40.39688007 3.19574273 45.92654525 3.20018864 51.45623565 C3.20312561 54.9186893 3.20723175 58.38113969 3.21169281 61.84359169 C3.22536546 72.69852723 3.23503133 83.55345525 3.2388947 94.40839881 C3.24336476 106.89665826 3.26086465 119.38480768 3.2898953 131.8730337 C3.31160285 141.55069198 3.32160392 151.22831953 3.32293582 160.90600187 C3.32397805 166.67344831 3.32975984 172.44079131 3.34775543 178.2082119 C3.36439199 183.64606119 3.36631705 189.08373103 3.35761642 194.52159691 C3.35685411 196.50149012 3.36108023 198.48139361 3.37107468 200.46126175 C3.4600142 219.2016752 2.56410701 239.87178597 -6 257 C-6.66 257 -7.32 257 -8 257 C-9.16063604 252.74433453 -8.76173392 249.3164922 -8 245 C-8.66 244.67 -9.32 244.34 -10 244 C-9.01 242.02 -9.01 242.02 -8 240 C-7.34 240 -6.68 240 -6 240 C-6 237.36 -6 234.72 -6 232 C-5.01 231.67 -4.02 231.34 -3 231 C-2.67 224.73 -2.34 218.46 -2 212 C-1.67 212 -1.34 212 -1 212 C-0.9764995 190.69221611 -0.95893746 169.38443441 -0.94818783 148.07664013 C-0.94306095 138.18007661 -0.9360882 128.2835212 -0.92456055 118.38696289 C-0.91450221 109.74760615 -0.90812044 101.1082553 -0.90591151 92.46889287 C-0.90462306 87.90673137 -0.90165857 83.34458669 -0.89426994 78.78243065 C-0.88624561 73.65336879 -0.8834151 68.52433107 -0.88647461 63.39526367 C-0.88689408 62.59034465 -0.88731355 61.78542563 -0.88774574 60.95611513 C-0.90227463 49.33222061 -1.14341844 37.74185548 -1.73712826 26.13135815 C-1.97277093 21.23684473 -2.04355315 16.82543222 -1 12 C-0.95954838 10.25046759 -0.95706814 8.49947331 -1 6.75 C-1.10982659 2.21965318 -1.10982659 2.21965318 0 0 Z " fill="#9085F3" transform="translate(854,376)"/>
<path d="M0 0 C113.52 0 227.04 0 344 0 C344 0.66 344 1.32 344 2 C171.74 2.495 171.74 2.495 -4 3 C-2.68 2.67 -1.36 2.34 0 2 C0 1.34 0 0.68 0 0 Z " fill="#7E9DFF" transform="translate(366,238)"/>
<path d="M0 0 C4.04649458 0.00632214 8.09299018 0.00684425 12.13948894 0.00802541 C19.77461233 0.01111292 27.40972112 0.01929094 35.04483813 0.0293749 C43.74881322 0.04061691 52.45278907 0.04606671 61.15676963 0.05107033 C79.03607317 0.0614762 96.91536318 0.0790248 114.79465556 0.10139394 C114.79465556 0.76139394 114.79465556 1.42139394 114.79465556 2.10139394 C111.9173547 3.06049423 110.13302097 3.22580617 107.14635253 3.22444177 C105.70571723 3.22742834 105.70571723 3.22742834 104.23597819 3.23047525 C103.17859688 3.22756241 102.12121557 3.22464956 101.0317924 3.22164845 C99.91033578 3.22250288 98.78887916 3.2233573 97.633439 3.22423762 C93.85618856 3.22589152 90.07898203 3.22037247 86.30173564 3.21491933 C83.60181978 3.21408133 80.9019048 3.21475119 78.20198894 3.21536183 C72.3792488 3.21588667 66.55651985 3.21274402 60.73378253 3.20712399 C52.31503926 3.19900363 43.89630141 3.19639322 35.47755464 3.195136 C21.81933586 3.19294633 8.16112305 3.18628853 -5.49709249 3.17683339 C-18.76629791 3.16765709 -32.03550172 3.16057732 -45.30470967 3.15632558 C-46.12235829 3.15606286 -46.94000691 3.15580013 -47.78243276 3.15552945 C-51.88425637 3.15422443 -55.98607999 3.15296072 -60.08790362 3.15171754 C-94.12705489 3.14134757 -128.16619893 3.12373155 -162.20534444 3.10139394 C-162.20534444 2.77139394 -162.20534444 2.44139394 -162.20534444 2.10139394 C-161.63348944 2.097162 -161.06163444 2.09293006 -160.47245049 2.08856988 C-146.47988882 1.98471861 -132.48737172 1.87600616 -118.49488854 1.76205468 C-111.72789811 1.70705999 -104.96090244 1.65363833 -98.19386983 1.60407948 C-91.65154762 1.5561617 -85.10927124 1.50364913 -78.56700635 1.44845319 C-76.08304633 1.42822452 -73.59907371 1.40948209 -71.11509061 1.39231992 C-55.61747211 1.32481447 -55.61747211 1.32481447 -40.14284444 0.58772206 C-26.80075913 -0.35961782 -13.36878675 -0.02446627 0 0 Z " fill="#7B89FD" transform="translate(588.2053444385529,320.8986060619354)"/>
<path d="M0 0 C4.95 0 9.9 0 15 0 C14.01 0.33 13.02 0.66 12 1 C12.33 1.99 12.66 2.98 13 4 C8.17889809 4.7768405 3.54765653 5.13311271 -1.33360291 5.15821838 C-2.39000555 5.16562535 -2.39000555 5.16562535 -3.46774966 5.17318195 C-5.80914536 5.18844415 -8.15051389 5.19688669 -10.49194336 5.20532227 C-12.17768591 5.21490968 -13.86342609 5.22492026 -15.54916382 5.23532104 C-20.11263819 5.26228266 -24.67612282 5.28333939 -29.23963237 5.30332303 C-34.0135793 5.3252367 -38.78749496 5.352599 -43.56141663 5.37937927 C-52.59577962 5.42923354 -61.63016005 5.47419924 -70.66455704 5.51740164 C-80.95233147 5.56683621 -91.24007452 5.62173123 -101.52781856 5.67708123 C-122.68518311 5.79078969 -143.84257764 5.89765286 -165 6 C-165 5.34 -165 4.68 -165 4 C-165.99 4 -166.98 4 -168 4 C-168 3.34 -168 2.68 -168 2 C-112.56 2 -57.12 2 0 2 C0 1.34 0 0.68 0 0 Z " fill="#8B87EB" transform="translate(708,734)"/>
<path d="M0 0 C0.99 0 1.98 0 3 0 C2.7834375 1.25490234 2.7834375 1.25490234 2.5625 2.53515625 C1.28742275 10.53095316 0.83640572 18.03577246 1.02734375 26.11328125 C1 29 1 29 0 30 C-0.23192865 31.51469448 -0.41215238 33.03754562 -0.5625 34.5625 C-0.64628906 35.38878906 -0.73007813 36.21507812 -0.81640625 37.06640625 C-0.87699219 37.70449219 -0.93757812 38.34257812 -1 39 C-1.33 39 -1.66 39 -2 39 C-2.33 37.35 -2.66 35.7 -3 34 C-3.33 98.02 -3.66 162.04 -4 228 C-4.33 228 -4.66 228 -5 228 C-5.78194194 223.16820635 -6.12551743 218.5416726 -6.12698364 213.64912415 C-6.12854363 212.94263282 -6.13010362 212.2361415 -6.13171089 211.50824136 C-6.13567581 209.1582232 -6.13254862 206.80827051 -6.12939453 204.45825195 C-6.13075073 202.76555341 -6.13253189 201.07285516 -6.13470459 199.38015747 C-6.13925741 194.79052513 -6.13749699 190.20091531 -6.1343255 185.61128259 C-6.13178542 180.78798886 -6.13414453 175.964697 -6.13571167 171.1414032 C-6.13753082 163.02842872 -6.13513608 154.91546333 -6.13037109 146.80249023 C-6.12495281 137.47045095 -6.12667435 128.13843361 -6.1321975 118.80639488 C-6.13676449 110.76354293 -6.13736105 102.72069753 -6.13475883 94.6778447 C-6.13321258 89.88853643 -6.13295585 85.09923839 -6.13629532 80.3099308 C-6.16641236 30.10670782 -6.16641236 30.10670782 -3 12.875 C-2.82210937 11.83730469 -2.64421875 10.79960937 -2.4609375 9.73046875 C-1.16445548 2.32891097 -1.16445548 2.32891097 0 0 Z " fill="#35588F" transform="translate(226,359)"/>
<path d="M0 0 C94.38 0.33 188.76 0.66 286 1 C286 1.33 286 1.66 286 2 C270.7704962 3.01613172 255.59246017 3.13668399 240.33325195 3.11352539 C237.69993996 3.11324273 235.06663075 3.11335898 232.43331909 3.1139679 C226.80348034 3.11448788 221.17365332 3.11139659 215.54381752 3.10573006 C207.40439384 3.09754299 199.26497574 3.09499252 191.12554839 3.09374207 C177.91434351 3.09156277 164.70314486 3.08493335 151.49194336 3.07543945 C138.67163117 3.06623614 125.85132069 3.05916965 113.03100586 3.05493164 C112.23846979 3.05466892 111.44593371 3.05440619 110.6293814 3.05413551 C106.65277644 3.05283031 102.67617146 3.05156664 98.69956648 3.05032361 C65.79970645 3.03998598 32.89985407 3.0223985 0 3 C0 2.01 0 1.02 0 0 Z " fill="#7C7CF0" transform="translate(379,652)"/>
<path d="M0 0 C0.33 0 0.66 0 1 0 C1 59.73 1 119.46 1 181 C0.01 181.33 -0.98 181.66 -2 182 C-3.1064911 177.55110812 -3.14128596 173.1998357 -3.12939453 168.64550781 C-3.13114685 167.81733047 -3.13289917 166.98915314 -3.13470459 166.13587952 C-3.13909344 163.40827315 -3.13619665 160.68073198 -3.1328125 157.953125 C-3.13348613 156.05694567 -3.13445666 154.16076643 -3.13571167 152.2645874 C-3.1371844 148.29698868 -3.13504675 144.32941251 -3.13037109 140.36181641 C-3.12465848 135.26484012 -3.12796516 130.16791631 -3.13394356 125.07094193 C-3.13754736 121.15917562 -3.13641169 117.24742188 -3.13381577 113.33565521 C-3.1331468 111.45528914 -3.13397387 109.57492195 -3.13629532 107.69455719 C-3.13882055 105.07531176 -3.13498382 102.45615299 -3.12939453 99.83691406 C-3.13141876 99.05355179 -3.13344299 98.27018951 -3.13552856 97.46308899 C-3.11426586 92.11426586 -3.11426586 92.11426586 -2 91 C-0.77914587 80.03074126 -0.79922926 68.93354703 -0.68359375 57.91015625 C-0.66295719 56.22765166 -0.64195933 54.54515147 -0.62062073 52.86265564 C-0.56609043 48.48824687 -0.51638433 44.11379687 -0.46777344 39.73931885 C-0.41704579 35.25391075 -0.36163061 30.76856064 -0.30664062 26.28320312 C-0.19990698 17.52218481 -0.09828307 8.76111717 0 0 Z " fill="#385C90" transform="translate(305,398)"/>
<path d="M0 0 C0.33 0 0.66 0 1 0 C1.33 65.01 1.66 130.02 2 197 C1.34 196.67 0.68 196.34 0 196 C-0.99 197.98 -0.99 197.98 -2 200 C-3.43714525 197.1257095 -2.53513794 195.15568294 -2 192 C-1.90265577 189.33597655 -1.84959818 186.69774703 -1.84851074 184.03410339 C-1.84427833 183.24972391 -1.84004592 182.46534443 -1.83568525 181.65719587 C-1.8227073 179.03863312 -1.8166458 176.42010078 -1.81054688 173.80151367 C-1.80260099 171.92049984 -1.79421276 170.03948783 -1.78541565 168.15847778 C-1.76738527 164.11357847 -1.75236057 160.06868311 -1.73963928 156.02376366 C-1.71940484 149.63384286 -1.69175701 143.24396737 -1.66296387 136.8540802 C-1.59780648 122.14368589 -1.5422717 107.43325822 -1.48697662 92.7228241 C-1.43617109 79.22698375 -1.38335348 65.73115998 -1.32245111 52.23536092 C-1.29403986 45.8765032 -1.2704675 39.51765105 -1.25052643 33.15876138 C-1.23718309 29.21449956 -1.21976938 25.27026353 -1.20121574 21.3260231 C-1.19343077 19.48974188 -1.18737396 17.65345245 -1.18312263 15.81715965 C-1.17711685 13.32172151 -1.16508939 10.82638493 -1.15148926 8.33097839 C-1.15119327 7.59481283 -1.15089728 6.85864726 -1.15059233 6.10017365 C-1.11409384 1.11409384 -1.11409384 1.11409384 0 0 Z " fill="#3D3971" transform="translate(774,398)"/>
<path d="M0 0 C3.33834991 3.33834991 2.95144881 7.7111672 3.12304783 12.26640987 C3.12166514 13.96020448 3.12166514 13.96020448 3.12025452 15.68821716 C3.12162918 16.99361954 3.12300385 18.29902191 3.12442017 19.64398193 C3.12088191 21.07312035 3.11724712 22.50225853 3.11352539 23.93139648 C3.11324305 25.44965106 3.11340217 26.96790578 3.1139679 28.48616028 C3.11425404 32.59306485 3.10838691 36.69994004 3.10139394 40.8068378 C3.09512991 45.10430167 3.09455419 49.40176627 3.09336853 53.69923401 C3.0902642 61.83051346 3.08206293 69.96177941 3.07201904 78.09305292 C3.06083 87.35301303 3.05534042 96.6129738 3.05032361 105.87293899 C3.03987956 124.9153003 3.02229752 143.95764906 3 163 C2.67 163 2.34 163 2 163 C1.67 134.62 1.34 106.24 1 77 C0.67 77 0.34 77 0 77 C-1.09374046 70.88188931 -1.07439064 64.95262367 -1 58.75 C-0.92275206 48.10013701 -1.20884627 37.49736163 -1.73242188 26.86035156 C-1.78076172 25.78881836 -1.82910156 24.71728516 -1.87890625 23.61328125 C-1.9260376 22.67266846 -1.97316895 21.73205566 -2.02172852 20.76293945 C-1.99801253 17.74727825 -1.53782314 14.96329 -1 12 C-0.95954838 10.25046759 -0.95706814 8.49947331 -1 6.75 C-1.10982659 2.21965318 -1.10982659 2.21965318 0 0 Z " fill="#8E89FD" transform="translate(854,376)"/>
<path d="M0 0 C0.33 0 0.66 0 1 0 C1.0501123 0.72590332 1.10022461 1.45180664 1.15185547 2.19970703 C1.38485769 5.50876123 1.62981462 8.81682713 1.875 12.125 C1.95363281 13.26710938 2.03226563 14.40921875 2.11328125 15.5859375 C2.19707031 16.69453125 2.28085938 17.803125 2.3671875 18.9453125 C2.47716064 20.46922607 2.47716064 20.46922607 2.58935547 22.02392578 C3.02814241 25.20395721 3.95174222 27.97310303 5 31 C5.1953125 33.9921875 5.1953125 33.9921875 5.125 36.875 C5.10695312 37.84179688 5.08890625 38.80859375 5.0703125 39.8046875 C5.03550781 40.89136719 5.03550781 40.89136719 5 42 C5.99 42.33 6.98 42.66 8 43 C10.22571978 44.68247538 10.91603609 45.5863745 11.4765625 48.34765625 C11.55003906 49.69150391 11.55003906 49.69150391 11.625 51.0625 C11.68816406 52.02929688 11.75132812 52.99609375 11.81640625 53.9921875 C11.87699219 54.98476563 11.93757812 55.97734375 12 57 C12.17860101 58.89669237 12.36545562 60.79263489 12.5625 62.6875 C12.64628906 63.51636719 12.73007813 64.34523438 12.81640625 65.19921875 C12.87699219 65.79347656 12.93757812 66.38773438 13 67 C13.66 67 14.32 67 15 67 C17.79381164 70.02662928 18.78181097 73.11702247 20 77 C20.52935881 78.25526174 21.07123123 79.50531412 21.625 80.75 C23 84 23 84 23 86 C23.66 86 24.32 86 25 86 C25.99 87.98 26.98 89.96 28 92 C26.35 92 24.7 92 23 92 C8.87576067 69.107815 -2.4919737 41.34553791 -2 14 C-1.67 14 -1.34 14 -1 14 C-0.67 9.38 -0.34 4.76 0 0 Z " fill="#649EF1" transform="translate(223,574)"/>
<path d="M0 0 C1.4540625 0.0309375 1.4540625 0.0309375 2.9375 0.0625 C-4.38325472 9.97444969 -4.38325472 9.97444969 -8.0625 14.0625 C-8.7225 14.0625 -9.3825 14.0625 -10.0625 14.0625 C-10.31 14.578125 -10.5575 15.09375 -10.8125 15.625 C-12.0625 18.0625 -12.0625 18.0625 -14.0625 21.1875 C-16.28089054 24.96698017 -16.93377597 28.72356829 -17.5703125 33.0234375 C-17.73273438 33.69632812 -17.89515625 34.36921875 -18.0625 35.0625 C-19.0525 35.5575 -19.0525 35.5575 -20.0625 36.0625 C-21.37435504 38.33715773 -22.58159313 40.59132028 -23.75 42.9375 C-24.08322266 43.57558594 -24.41644531 44.21367187 -24.75976562 44.87109375 C-25.60919477 46.56288818 -26.34347748 48.31129902 -27.0625 50.0625 C-26.7325 51.0525 -26.4025 52.0425 -26.0625 53.0625 C-26.35549023 54.73672986 -26.68940101 56.40428227 -27.0625 58.0625 C-27.0625 59.0525 -27.0625 60.0425 -27.0625 61.0625 C-27.7225 61.0625 -28.3825 61.0625 -29.0625 61.0625 C-29.35125 61.805 -29.64 62.5475 -29.9375 63.3125 C-30.88552644 65.62989797 -31.91095911 67.84167115 -33.0625 70.0625 C-33.3925 69.4025 -33.7225 68.7425 -34.0625 68.0625 C-33.7325 67.0725 -33.4025 66.0825 -33.0625 65.0625 C-34.0525 65.0625 -35.0425 65.0625 -36.0625 65.0625 C-34.21293721 56.78337398 -31.74278577 49.05918464 -28.4375 41.25 C-27.99728516 40.20610107 -27.55707031 39.16220215 -27.10351562 38.08666992 C-10.77491535 0.21989623 -10.77491535 0.21989623 0 0 Z " fill="#5697EA" transform="translate(262.0625,293.9375)"/>
<path d="M0 0 C2.64 0 5.28 0 8 0 C8 0.99 8 1.98 8 3 C8.68152508 2.97021844 9.36305016 2.94043688 10.06522751 2.90975285 C28.61675737 2.12077674 47.12823279 1.86034253 65.69559956 1.89860606 C69.34831346 1.90500819 73.00102891 1.90545633 76.65374756 1.90663147 C83.51997906 1.90969648 90.38619397 1.91784217 97.25241828 1.92798096 C105.0908847 1.93929541 112.92935205 1.94469051 120.76782465 1.94967639 C136.84522603 1.96003093 152.92261087 1.97753303 169 2 C169 2.66 169 3.32 169 4 C113.23 4 57.46 4 0 4 C0 2.68 0 1.36 0 0 Z " fill="#7F93F7" transform="translate(371,652)"/>
<path d="M0 0 C1.90371797 6.52703306 2.14858932 13.29506525 2.13371277 20.04782104 C2.13597833 20.8168696 2.13824388 21.58591816 2.14057809 22.37827122 C2.14686487 24.93302328 2.14609221 27.48772157 2.14526367 30.04248047 C2.14825826 31.88275724 2.15166147 33.72303339 2.15544128 35.56330872 C2.16424925 40.54421875 2.16661788 45.52511159 2.16725707 50.50602865 C2.16796873 53.61707964 2.1701051 56.72812627 2.17275429 59.83917618 C2.18199297 70.6890109 2.18609051 81.53883335 2.18530273 92.38867188 C2.18470045 102.51124464 2.19528551 112.63376437 2.2110464 122.7563237 C2.22409693 131.44689271 2.22948777 140.13744433 2.22884732 148.82802308 C2.22859185 154.01917586 2.23147081 159.21028137 2.24202538 164.40142441 C2.25166598 169.27533344 2.25181352 174.14914955 2.24450874 179.02306175 C2.24345825 180.81539355 2.24585308 182.60773102 2.2518692 184.40005302 C2.25952606 186.83817354 2.25498688 189.27596789 2.24723816 191.71408081 C2.25238172 192.4304055 2.25752529 193.14673019 2.26282471 193.88476169 C2.22827266 198.77172734 2.22827266 198.77172734 0 201 C-0.33 139.62 -0.66 78.24 -1 15 C-1.33 15 -1.66 15 -2 15 C-2.33 10.71 -2.66 6.42 -3 2 C-2.01 2 -1.02 2 0 2 C0 1.34 0 0.68 0 0 Z " fill="#9289F5" transform="translate(775,384)"/>
<path d="M0 0 C0.99 0 1.98 0 3 0 C2.89186151 10.95400145 2.77910762 21.90794514 2.66066074 32.86184025 C2.60578621 37.9496219 2.55242824 43.03740952 2.50268555 48.12524414 C2.45451216 53.04660321 2.40216001 57.96790256 2.34705925 62.88918877 C2.32687263 64.75517706 2.30812471 66.62118156 2.29092598 68.48719978 C2.18961932 79.36236615 1.87655092 90.15690986 1 101 C0.67 101 0.34 101 0 101 C-0.83032966 84.10210022 -1.15906927 67.24008578 -1.13037109 50.32250977 C-1.12496949 46.5411383 -1.13037949 42.75988373 -1.13671875 38.97851562 C-1.13990801 25.95135907 -0.94961377 12.99499937 0 0 Z " fill="#63A6FD" transform="translate(303,388)"/>
<path d="M0 0 C1.20205078 0.00451172 2.40410156 0.00902344 3.64257812 0.01367188 C6.53261111 0.02518595 9.42252374 0.04143367 12.3125 0.0625 C12.3125 0.3925 12.3125 0.7225 12.3125 1.0625 C17.7575 1.5575 17.7575 1.5575 23.3125 2.0625 C23.3125 2.3925 23.3125 2.7225 23.3125 3.0625 C-30.4775 3.0625 -84.2675 3.0625 -139.6875 3.0625 C-139.6875 2.7325 -139.6875 2.4025 -139.6875 2.0625 C-138.40171555 2.05219254 -137.11593109 2.04188507 -135.79118347 2.03126526 C-123.59737631 1.93296075 -111.40361375 1.83018008 -99.20987988 1.72316074 C-92.94291431 1.66829816 -86.67594389 1.61494247 -80.40893555 1.56518555 C-74.34640814 1.51699407 -68.28392891 1.46464196 -62.22146034 1.40955925 C-59.92336561 1.3893806 -57.62525781 1.37063169 -55.3271389 1.35342598 C-43.10266819 1.26092848 -30.92446528 1.03089121 -18.72131348 0.27966309 C-12.48379738 -0.09046101 -6.24669084 -0.04637749 0 0 Z " fill="#908FEC" transform="translate(679.6875,652.9375)"/>
<path d="M0 0 C3.79966731 0.94156958 4.9416176 1.91765543 7.24609375 5.16796875 C7.99476447 6.49772738 8.72430291 7.83838333 9.4375 9.1875 C9.82365479 9.897854 10.20980957 10.60820801 10.60766602 11.34008789 C15.77366393 21.05414138 20.09012021 31.11368522 22 42 C20.68 42 19.36 42 18 42 C16.68 37.71 15.36 33.42 14 29 C13.34 29 12.68 29 12 29 C11.32243118 27.44219668 10.65840543 25.87849904 10 24.3125 C9.62875 23.44238281 9.2575 22.57226562 8.875 21.67578125 C7.98129512 18.9427998 7.83550324 16.85299066 8 14 C7.34 14 6.68 14 6 14 C5.34 13.34 4.68 12.68 4 12 C3.34 12 2.68 12 2 12 C2 12.66 2 13.32 2 14 C1.34 14 0.68 14 0 14 C0 10.7 0 7.4 0 4 C-0.66 4 -1.32 4 -2 4 C-1.34 2.68 -0.68 1.36 0 0 Z " fill="#8C82F8" transform="translate(827,307)"/>
<path d="M0 0 C0.66 0.33 1.32 0.66 2 1 C2.00808685 2.17462296 2.01617371 3.34924591 2.02450562 4.5594635 C2.10204908 15.63863603 2.18980919 26.71768699 2.28752708 37.79670048 C2.33743555 43.4922906 2.3837662 49.18786266 2.421875 54.88354492 C2.45879645 60.38198093 2.50517526 65.88026385 2.55806351 71.37856865 C2.57657097 73.47444404 2.59169234 75.57035221 2.60334396 77.66627693 C2.62026875 80.60588321 2.64931909 83.54514166 2.68115234 86.48461914 C2.68331253 87.34777237 2.68547272 88.2109256 2.68769836 89.10023499 C2.75669701 94.10025575 3.39964537 98.25596883 5 103 C3.68 103 2.36 103 1 103 C-1.50499006 98.19421386 -1.23233432 93.70894264 -1.13525391 88.4362793 C-1.12579239 87.47969925 -1.11633087 86.5231192 -1.10658264 85.53755188 C-1.07296613 82.38291049 -1.02483367 79.2286671 -0.9765625 76.07421875 C-0.95038909 73.88419121 -0.92512259 71.69415267 -0.90072632 69.50410461 C-0.83413712 63.74512783 -0.75523061 57.98638312 -0.67376709 52.2276001 C-0.59278693 46.34908951 -0.52344418 40.47044295 -0.453125 34.59179688 C-0.31347941 23.06103494 -0.16082234 11.53048466 0 0 Z " fill="#8095FB" transform="translate(360,739)"/>
<path d="M0 0 C55.77 0.33 111.54 0.66 169 1 C169 1.33 169 1.66 169 2 C151.09947209 2.13162933 133.19893588 2.26206656 115.29838943 2.39115143 C106.98359017 2.45113799 98.66879387 2.51148934 90.35400391 2.57275391 C83.09204956 2.62626004 75.83009025 2.67902634 68.56812453 2.73096704 C64.73643458 2.75839712 60.90474775 2.78615477 57.07306671 2.81480408 C38.04836774 2.95677355 19.0253232 3.03241494 0 3 C0 2.01 0 1.02 0 0 Z " fill="#6574D0" transform="translate(379,652)"/>
<path d="M0 0 C0.33 0.66 0.66 1.32 1 2 C3.02463255 2.65213292 3.02463255 2.65213292 5 3 C5 3.66 5 4.32 5 5 C4.01 5 3.02 5 2 5 C2.43699219 5.65871094 2.87398437 6.31742188 3.32421875 6.99609375 C4 10 4 10 3.21728516 11.81298828 C1.83644424 13.97386255 0.35977111 16.0173695 -1.1875 18.0625 C-1.73180664 18.80749756 -2.27611328 19.55249512 -2.83691406 20.32006836 C-7.77936215 26.96781807 -13.21049534 33.08513205 -19 39 C-19.99 38.01 -20.98 37.02 -22 36 C-21.54625 35.4225 -21.0925 34.845 -20.625 34.25 C-19.15886484 32.2199667 -18.05142216 30.26460157 -17 28 C-16.34 28 -15.68 28 -15 28 C-14.67 27.01 -14.34 26.02 -14 25 C-13.34 25 -12.68 25 -12 25 C-11.67 23.68 -11.34 22.36 -11 21 C-10.01 21 -9.02 21 -8 21 C-7.896875 20.21625 -7.79375 19.4325 -7.6875 18.625 C-7 16 -7 16 -4 14 C-3.67 13.01 -3.34 12.02 -3 11 C-2.34 11 -1.68 11 -1 11 C-1.350625 10.2575 -1.70125 9.515 -2.0625 8.75 C-3.05526066 5.83790206 -3.1541971 4.78930967 -2 2 C-1.34 1.34 -0.68 0.68 0 0 Z " fill="#867EEA" transform="translate(830,654)"/>
<path d="M0 0 C4.29 0.33 8.58 0.66 13 1 C12.34 2.32 11.68 3.64 11 5 C7.68241408 6.05559552 5.74337406 6.28573511 2.47055054 5.02774048 C-2.30986517 3.61210723 -6.81788947 3.69179426 -11.77880859 3.68115234 C-12.85257751 3.67110672 -13.92634644 3.6610611 -15.03265381 3.65071106 C-18.57124308 3.61989416 -22.10975673 3.60284782 -25.6484375 3.5859375 C-28.10609588 3.56722468 -30.56374785 3.54765119 -33.02139282 3.5272522 C-39.48215959 3.47593718 -45.94294718 3.43630791 -52.40380859 3.39910889 C-58.99972687 3.35906543 -65.59555854 3.3079746 -72.19140625 3.2578125 C-85.12754224 3.16106059 -98.06372791 3.07627805 -111 3 C-111 2.67 -111 2.34 -111 2 C-74.37 2 -37.74 2 0 2 C0 1.34 0 0.68 0 0 Z " fill="#838CFA" transform="translate(710,238)"/>
<path d="M0 0 C0.66 0 1.32 0 2 0 C1.20123624 9.31096258 -0.09700146 18.2681364 -2.5 27.3125 C-2.71358154 28.11792236 -2.92716309 28.92334473 -3.1472168 29.75317383 C-4.15171176 33.39325935 -5.23344884 36.64756768 -7 40 C-7.66 40 -8.32 40 -9 40 C-10.16063604 35.74433453 -9.76173392 32.3164922 -9 28 C-9.66 27.67 -10.32 27.34 -11 27 C-10.34 25.68 -9.68 24.36 -9 23 C-8.34 23 -7.68 23 -7 23 C-7.103125 21.741875 -7.20625 20.48375 -7.3125 19.1875 C-7.48828125 17.04296875 -7.48828125 17.04296875 -7 15 C-5.7934375 14.319375 -5.7934375 14.319375 -4.5625 13.625 C-1.7220524 12.20879557 -1.7220524 12.20879557 -1.07421875 9.08203125 C-0.88279297 7.46361328 -0.88279297 7.46361328 -0.6875 5.8125 C-0.54699219 4.72582031 -0.40648437 3.63914062 -0.26171875 2.51953125 C-0.13216797 1.27236328 -0.13216797 1.27236328 0 0 Z " fill="#877CEF" transform="translate(855,593)"/>
<path d="M0 0 C0.66 0 1.32 0 2 0 C2.45819192 5.39139155 2.45819192 5.39139155 0.453125 8.0546875 C-14.83971718 20.69026278 -14.83971718 20.69026278 -24 24 C-24 23.34 -24 22.68 -24 22 C-24.99 21.67 -25.98 21.34 -27 21 C-26.34 21 -25.68 21 -25 21 C-24.67 19.35 -24.34 17.7 -24 16 C-22.02 16.33 -20.04 16.66 -18 17 C-18 16.34 -18 15.68 -18 15 C-16.68 14.67 -15.36 14.34 -14 14 C-14 13.34 -14 12.68 -14 12 C-13.34 12 -12.68 12 -12 12 C-12 11.34 -12 10.68 -12 10 C-9.36107824 8.21694476 -7.02821137 7.00940379 -4 6 C-3.26676204 3.98491642 -3.26676204 3.98491642 -3 2 C-2.01 2 -1.02 2 0 2 C0 1.34 0 0.68 0 0 Z " fill="#7E77E5" transform="translate(801,694)"/>
<path d="M0 0 C2.97 0.495 2.97 0.495 6 1 C5.67 1.99 5.34 2.98 5 4 C8.3 4.33 11.6 4.66 15 5 C14.67 5.66 14.34 6.32 14 7 C11.19108336 7.84893027 8.40675424 8.60355733 5.5625 9.3125 C-0.73824439 10.95253027 -6.38962674 12.78248869 -12.0546875 16.08203125 C-14 17 -14 17 -18 17 C-17.67 16.34 -17.34 15.68 -17 15 C-16.34 15.33 -15.68 15.66 -15 16 C-15 15.34 -15 14.68 -15 14 C-15.66 13.67 -16.32 13.34 -17 13 C-13.25 10 -13.25 10 -11 10 C-10.67 9.34 -10.34 8.68 -10 8 C-2.58823529 6.70588235 -2.58823529 6.70588235 0 8 C0 7.34 0 6.68 0 6 C0.99 6 1.98 6 3 6 C3 4.68 3 3.36 3 2 C2.01 2 1.02 2 0 2 C0 1.34 0 0.68 0 0 Z " fill="#787CE9" transform="translate(523,734)"/>
<path d="M0 0 C11.99594047 0.27956641 23.12568892 4.18262385 34 9 C30.13646557 11.57568962 27.49334414 10.91462311 23.125 10.3125 C22.06345703 10.19358398 22.06345703 10.19358398 20.98046875 10.07226562 C16.63013873 9.50923409 13.60702073 8.46622624 10 6 C7.80869466 5.30420546 7.80869466 5.30420546 6 5 C6 4.34 6 3.68 6 3 C4.35 3 2.7 3 1 3 C0.67 2.01 0.34 1.02 0 0 Z " fill="#817FE9" transform="translate(724,240)"/>
<path d="M0 0 C0.66 0.33 1.32 0.66 2 1 C1.375 3.3125 1.375 3.3125 0 6 C-1.99145391 7.01691264 -3.99187074 8.01642648 -6 9 C-7.88131569 11.54788853 -7.88131569 11.54788853 -9 14 C-9.66 13.67 -10.32 13.34 -11 13 C-11.66 13 -12.32 13 -13 13 C-13.6496875 13.7115625 -13.6496875 13.7115625 -14.3125 14.4375 C-16.44693733 16.41383086 -18.16307947 16.61663236 -21 17 C-21 16.34 -21 15.68 -21 15 C-22.32 15.33 -23.64 15.66 -25 16 C-21.10316286 11.69136402 -17.03221236 9.05365138 -11.9375 6.3125 C-10.87692383 5.72758789 -10.87692383 5.72758789 -9.79492188 5.13085938 C-7.87000637 4.07351142 -5.94187999 3.02584549 -4 2 C-3.30463135 1.6083667 -2.6092627 1.2167334 -1.89282227 0.81323242 C-1.26819092 0.54486572 -0.64355957 0.27649902 0 0 Z " fill="#6AA5F5" transform="translate(311,253)"/>
<path d="M0 0 C0.33 0.66 0.66 1.32 1 2 C2.32 2 3.64 2 5 2 C5.33 1.34 5.66 0.68 6 0 C6.35546875 2.1875 6.35546875 2.1875 6 5 C4.13007095 6.90869951 2.42565366 8.41451543 0.3125 10 C-3.70905531 13.12733341 -7.43188852 16.35353473 -11 20 C-12.96064897 21.72247903 -14.97510993 23.35183366 -17 25 C-17.75 23.25 -17.75 23.25 -18 21 C-16.1875 18.75 -16.1875 18.75 -14 17 C-13.34 17 -12.68 17 -12 17 C-11.67 16.01 -11.34 15.02 -11 14 C-5.53488372 9 -5.53488372 9 -3 9 C-2.87625 8.071875 -2.7525 7.14375 -2.625 6.1875 C-2 3 -2 3 0 0 Z " fill="#7B88F6" transform="translate(442,797)"/>
<path d="M0 0 C0.94875 0.04125 1.8975 0.0825 2.875 0.125 C-4.44575472 10.03694969 -4.44575472 10.03694969 -8.125 14.125 C-8.785 14.125 -9.445 14.125 -10.125 14.125 C-10.40085938 14.68703125 -10.67671875 15.2490625 -10.9609375 15.828125 C-12.16868028 18.21118794 -13.44676809 20.5429008 -14.75 22.875 C-15.19601563 23.67421875 -15.64203125 24.4734375 -16.1015625 25.296875 C-16.43929687 25.90015625 -16.77703125 26.5034375 -17.125 27.125 C-17.785 27.125 -18.445 27.125 -19.125 27.125 C-18.89336737 20.20381695 -15.79970528 16.20894478 -11.6875 10.8125 C-11.08873047 10.00232422 -10.48996094 9.19214844 -9.87304688 8.35742188 C-3.77106924 0.15084277 -3.77106924 0.15084277 0 0 Z " fill="#63A5F5" transform="translate(262.125,293.875)"/>
<path d="M0 0 C-1.62339805 1.70884005 -3.29319053 3.37446717 -5 5 C-5.66 5 -6.32 5 -7 5 C-7.33644531 5.85851562 -7.33644531 5.85851562 -7.6796875 6.734375 C-9.3780159 9.64866633 -11.45880069 11.19907745 -14.125 13.25 C-15.03507812 13.95640625 -15.94515625 14.6628125 -16.8828125 15.390625 C-17.58148438 15.92171875 -18.28015625 16.4528125 -19 17 C-21 14 -21 14 -21 12 C-19.68 11.67 -18.36 11.34 -17 11 C-17.061875 10.113125 -17.12375 9.22625 -17.1875 8.3125 C-16 5 -16 5 -13.66015625 3.48828125 C-8.97970358 1.29569336 -5.23680831 -0.32491146 0 0 Z " fill="#757DEC" transform="translate(481,773)"/>
<path d="M0 0 C0.99 0 1.98 0 3 0 C4.33333333 1.33333333 5.66666667 2.66666667 7 4 C7.70125 4.495 8.4025 4.99 9.125 5.5 C9.74375 5.995 10.3625 6.49 11 7 C11 7.66 11 8.32 11 9 C11.86625 9.1546875 11.86625 9.1546875 12.75 9.3125 C15.32049158 10.09792798 16.93657284 11.30504197 19 13 C18.34 13 17.68 13 17 13 C17 13.66 17 14.32 17 15 C18.98 15.66 20.96 16.32 23 17 C22.34 17.66 21.68 18.32 21 19 C12.87400372 13.83636259 4.82878619 8.61002881 -3 3 C-2.01 2.67 -1.02 2.34 0 2 C0 1.34 0 0.68 0 0 Z " fill="#5F8EE6" transform="translate(285,702)"/>
<path d="M0 0 C2.64 0 5.28 0 8 0 C8 0.99 8 1.98 8 3 C27.8 3 47.6 3 68 3 C68 3.33 68 3.66 68 4 C45.56 4 23.12 4 0 4 C0 2.68 0 1.36 0 0 Z " fill="#85A0F9" transform="translate(371,652)"/>
<path d="M0 0 C3.11057388 0.62211478 4.66257902 1.50116412 6.4453125 4.13671875 C7.68894732 6.40013413 8.87583369 8.6751284 10 11 C9.01 12.485 9.01 12.485 8 14 C7.34 14 6.68 14 6 14 C5.34 13.34 4.68 12.68 4 12 C3.34 12 2.68 12 2 12 C2 12.66 2 13.32 2 14 C1.34 14 0.68 14 0 14 C0 10.7 0 7.4 0 4 C-0.66 4 -1.32 4 -2 4 C-1.34 2.68 -0.68 1.36 0 0 Z " fill="#817AF1" transform="translate(827,307)"/>
<path d="M0 0 C0.33 0.99 0.66 1.98 1 3 C1.66 3 2.32 3 3 3 C3.1875 5.8125 3.1875 5.8125 3 9 C2.02297957 10.02246324 1.01904235 11.01941207 0 12 C-0.9414298 13.53545874 -1.83634864 15.10021774 -2.6875 16.6875 C-3.34298828 17.89986328 -3.34298828 17.89986328 -4.01171875 19.13671875 C-4.50091797 20.05904297 -4.50091797 20.05904297 -5 21 C-5.33 21 -5.66 21 -6 21 C-6.84057704 12.59422965 -4.11638645 7.24042974 0 0 Z " fill="#538EE7" transform="translate(242,318)"/>
<path d="M0 0 C3.29128352 0.56746268 4.94184087 1.34726156 7 4 C7.51171875 6.69921875 7.51171875 6.69921875 7.6875 9.6875 C7.78611328 11.17830078 7.78611328 11.17830078 7.88671875 12.69921875 C7.92410156 13.45847656 7.96148437 14.21773437 8 15 C7.01 14.67 6.02 14.34 5 14 C4.01 14.33 3.02 14.66 2 15 C1.46467177 13.44240657 0.94734622 11.87861955 0.4375 10.3125 C0.14746094 9.44238281 -0.14257812 8.57226562 -0.44140625 7.67578125 C-1.05141961 4.75368926 -0.77703633 2.85599447 0 0 Z " fill="#5B9EEF" transform="translate(227,616)"/>
<path d="M0 0 C0.66 0.33 1.32 0.66 2 1 C4.00800456 0.71887936 6.01014051 0.38932033 8 0 C8 0.66 8 1.32 8 2 C7.34 2 6.68 2 6 2 C6 2.66 6 3.32 6 4 C9.0745356 3.2236068 9.0745356 3.2236068 11 1 C11 2.65 11 4.3 11 6 C10.34 6 9.68 6 9 6 C9.33 6.99 9.66 7.98 10 9 C8.35 8.67 6.7 8.34 5 8 C5 8.99 5 9.98 5 11 C2.50638429 9.79618552 0.31856917 8.54571278 -2 7 C-2 6.34 -2 5.68 -2 5 C-2.66 4.67 -3.32 4.34 -4 4 C-3.01 3.67 -2.02 3.34 -1 3 C-1 2.34 -1 1.68 -1 1 C-0.67 0.67 -0.34 0.34 0 0 Z " fill="#5991FA" transform="translate(276,692)"/>
<path d="M0 0 C2.85793316 2.85793316 2.40799941 5.14665584 2.625 9.125 C2.69976563 10.40632813 2.77453125 11.68765625 2.8515625 13.0078125 C2.92503906 14.48894531 2.92503906 14.48894531 3 16 C2.34 15.67 1.68 15.34 1 15 C0.67 24.9 0.34 34.8 0 45 C-0.33 45 -0.66 45 -1 45 C-1.19762348 40.62539593 -1.38131371 36.25031325 -1.5625 31.875 C-1.61857422 30.6375 -1.67464844 29.4 -1.73242188 28.125 C-1.78076172 26.92617188 -1.82910156 25.72734375 -1.87890625 24.4921875 C-1.9260376 23.39245605 -1.97316895 22.29272461 -2.02172852 21.15966797 C-1.99994079 17.99139036 -1.57562888 15.10976975 -1 12 C-0.95954838 10.25046759 -0.95706814 8.49947331 -1 6.75 C-1.10982659 2.21965318 -1.10982659 2.21965318 0 0 Z " fill="#857DF6" transform="translate(854,376)"/>
<path d="M0 0 C0.33 0 0.66 0 1 0 C1.33 18.81 1.66 37.62 2 57 C1.34 56.67 0.68 56.34 0 56 C-0.66 57.32 -1.32 58.64 -2 60 C-3.46581902 57.06836196 -2.63101417 55.001032 -2.1015625 51.77734375 C-0.55994526 41.41774942 -0.54199784 31.016391 -0.375 20.5625 C-0.33671578 18.55922977 -0.29765847 16.55597415 -0.2578125 14.55273438 C-0.16297976 9.70194501 -0.07854706 4.85107928 0 0 Z " fill="#877BFD" transform="translate(774,538)"/>
<path d="M0 0 C0.99 0 1.98 0 3 0 C2.01 6.93 1.02 13.86 0 21 C-0.66 21 -1.32 21 -2 21 C-2 23.31 -2 25.62 -2 28 C-2.33 28 -2.66 28 -3 28 C-4.72954307 19.33144677 -4.02418498 8.04836997 0 0 Z " fill="#6EADFC" transform="translate(226,359)"/>
<path d="M0 0 C-0.680625 0.45375 -1.36125 0.9075 -2.0625 1.375 C-6.5834637 5.41501011 -10.28124411 10.56248821 -13 16 C-13.66 16 -14.32 16 -15 16 C-15.45374191 10.32822615 -14.65083143 7.4024732 -11 3 C-10.34 3 -9.68 3 -9 3 C-9 2.34 -9 1.68 -9 1 C-5.57367167 -0.61798838 -3.61944899 -1.34053666 0 0 Z " fill="#5D9AEE" transform="translate(331,345)"/>
<path d="M0 0 C0 1.65 0 3.3 0 5 C-1.3303125 5.3403125 -1.3303125 5.3403125 -2.6875 5.6875 C-6.15530182 6.80800457 -6.15530182 6.80800457 -8.625 9.625 C-9.40875 10.40875 -10.1925 11.1925 -11 12 C-12.32 12 -13.64 12 -15 12 C-13.72472262 6.51630725 -11.56426545 4.22183444 -7 1 C-2.5 -1.25 -2.5 -1.25 0 0 Z " fill="#6CA8F7" transform="translate(287,272)"/>
<path d="M0 0 C0.66 0.33 1.32 0.66 2 1 C2.38133299 2.9914056 2.71325582 4.99279077 3 7 C3.33 7.66 3.66 8.32 4 9 C4.10486659 10.43608972 4.18408297 11.87409615 4.25 13.3125 C4.74767394 19.09057879 6.72603644 23.9905918 8.94140625 29.3125 C10 32 10 32 10 34 C9.01 34 8.02 34 7 34 C6 31 6 31 7 28 C6.34 28 5.68 28 5 28 C4.01 24.04 3.02 20.08 2 16 C1.34 16.33 0.68 16.66 0 17 C-0.19436491 14.54203147 -0.3807742 12.08390706 -0.5625 9.625 C-0.61857422 8.92632813 -0.67464844 8.22765625 -0.73242188 7.5078125 C-1.11328125 2.2265625 -1.11328125 2.2265625 0 0 Z " fill="#5B8CDA" transform="translate(304,578)"/>
<path d="M0 0 C-0.33 0.66 -0.66 1.32 -1 2 C1.64 1.34 4.28 0.68 7 0 C7 3 7 3 6 5 C2.25801961 5.70603404 -1.18792739 6 -5 6 C-5 5.01 -5 4.02 -5 3 C-8.35433109 3.94933899 -11.69246505 4.89748835 -15 6 C-15.33 6.66 -15.66 7.32 -16 8 C-16.99 7.34 -17.98 6.68 -19 6 C-17.27149655 5.20688633 -15.54216646 4.4155741 -13.8125 3.625 C-12.36810547 2.96371094 -12.36810547 2.96371094 -10.89453125 2.2890625 C-9.93933594 1.86367187 -8.98414063 1.43828125 -8 1 C-6.67548828 0.39285156 -6.67548828 0.39285156 -5.32421875 -0.2265625 C-3 -1 -3 -1 0 0 Z " fill="#5686E1" transform="translate(332,246)"/>
<path d="M0 0 C2.97 0 5.94 0 9 0 C9 0.66 9 1.32 9 2 C6.12682985 2.98482876 3.25167255 3.9629993 0.375 4.9375 C-0.43324219 5.21529297 -1.24148438 5.49308594 -2.07421875 5.77929688 C-6.37250646 7.22953216 -10.47874188 8.42203982 -15 9 C-15.33 8.01 -15.66 7.02 -16 6 C-13.525 6.495 -13.525 6.495 -11 7 C-11 6.34 -11 5.68 -11 5 C-11.66 4.67 -12.32 4.34 -13 4 C-11.71802734 3.81824219 -11.71802734 3.81824219 -10.41015625 3.6328125 C-9.30542969 3.46523438 -8.20070313 3.29765625 -7.0625 3.125 C-5.96035156 2.96257813 -4.85820313 2.80015625 -3.72265625 2.6328125 C-2.37494141 2.31957031 -2.37494141 2.31957031 -1 2 C-0.67 1.34 -0.34 0.68 0 0 Z " fill="#6C66C8" transform="translate(743,728)"/>
<path d="M0 0 C-1.34577308 4.28133304 -3.02013447 6.18609797 -6.625 8.8125 C-7.85089844 9.71935547 -7.85089844 9.71935547 -9.1015625 10.64453125 C-9.72804688 11.09183594 -10.35453125 11.53914062 -11 12 C-13.046875 8.28125 -13.046875 8.28125 -12.625 5.75 C-12.41875 5.1725 -12.2125 4.595 -12 4 C-10.35 3.67 -8.7 3.34 -7 3 C-6.67 2.01 -6.34 1.02 -6 0 C-3.50907189 -1.24546405 -2.58919267 -0.7767578 0 0 Z " fill="#6C74E0" transform="translate(421,823)"/>
<path d="M0 0 C1.94788408 5.84365224 2.20417003 9.53408173 0.0625 15.375 C-0.31777344 16.43460937 -0.69804687 17.49421875 -1.08984375 18.5859375 C-1.39019531 19.38257813 -1.69054687 20.17921875 -2 21 C-2.33 21 -2.66 21 -3 21 C-3.13277344 20.22914063 -3.26554687 19.45828125 -3.40234375 18.6640625 C-3.57894531 17.66117187 -3.75554687 16.65828125 -3.9375 15.625 C-4.11152344 14.62726563 -4.28554688 13.62953125 -4.46484375 12.6015625 C-4.87712062 10.03090344 -4.87712062 10.03090344 -6 8 C-5.01 8 -4.02 8 -3 8 C-3.061875 7.05125 -3.12375 6.1025 -3.1875 5.125 C-3.125625 4.09375 -3.06375 3.0625 -3 2 C-2.01 1.34 -1.02 0.68 0 0 Z " fill="#5488F1" transform="translate(310,363)"/>
<path d="M0 0 C0.66 1.32 1.32 2.64 2 4 C-1.3 7.63 -4.6 11.26 -8 15 C-8.99 14.01 -9.98 13.02 -11 12 C-10.54625 11.4225 -10.0925 10.845 -9.625 10.25 C-7.95187302 8.11722978 -7.95187302 8.11722978 -7.125 5.875 C-5.57752772 3.29587953 -3.76533435 2.99268413 -1 2 C-0.67 1.34 -0.34 0.68 0 0 Z " fill="#8279E1" transform="translate(819,678)"/>
<path d="M0 0 C2.62429743 3.13709118 3.95420147 6.13194468 5.25 10 C5.60578125 11.03125 5.9615625 12.0625 6.328125 13.125 C6.9907779 15.96053799 7.00586171 17.31770211 6 20 C5.01 19.67 4.02 19.34 3 19 C1.8671875 16.1640625 1.8671875 16.1640625 0.875 12.625 C0.54242187 11.46226562 0.20984375 10.29953125 -0.1328125 9.1015625 C-0.41898438 8.07804687 -0.70515625 7.05453125 -1 6 C-1.33 5.01 -1.66 4.02 -2 3 C-1.34 3 -0.68 3 0 3 C0 2.01 0 1.02 0 0 Z " fill="#847DE1" transform="translate(842,330)"/>
<path d="M0 0 C0.556875 0.226875 1.11375 0.45375 1.6875 0.6875 C-2.87880734 5.55822783 -8.06226539 9.57906398 -13.3125 13.6875 C-13.92578125 11.828125 -13.92578125 11.828125 -14.3125 9.6875 C-12.5 7.4375 -12.5 7.4375 -10.3125 5.6875 C-9.6525 5.6875 -8.9925 5.6875 -8.3125 5.6875 C-7.9825 4.6975 -7.6525 3.7075 -7.3125 2.6875 C-3.19128788 -0.43125512 -3.19128788 -0.43125512 0 0 Z " fill="#6B78D7" transform="translate(438.3125,808.3125)"/>
<path d="M0 0 C0.79921875 0.11085938 1.5984375 0.22171875 2.421875 0.3359375 C3.32679688 0.47902344 3.32679688 0.47902344 4.25 0.625 C4.25 1.285 4.25 1.945 4.25 2.625 C4.91 2.955 5.57 3.285 6.25 3.625 C6.58 4.615 6.91 5.605 7.25 6.625 C6.693125 6.49222656 6.13625 6.35945313 5.5625 6.22265625 C0.4641299 5.04279695 -4.54787441 4.19250461 -9.75 3.625 C-7.67609396 -0.52281207 -4.21494357 -0.61984464 0 0 Z " fill="#6D6DC6" transform="translate(716.75,322.375)"/>
<path d="M0 0 C6.41481258 -0.42765417 11.88595404 1.14256832 18 3 C18 3.99 18 4.98 18 6 C11.09647445 6.51137226 6.25172386 4.86964374 0 2 C0 1.34 0 0.68 0 0 Z " fill="#70A0FC" transform="translate(349,648)"/>
<path d="M0 0 C3.7676445 -0.3822248 5.4604514 -0.40094896 8.5546875 1.8984375 C9.70324219 3.12433594 9.70324219 3.12433594 10.875 4.375 C12.04675781 5.59316406 12.04675781 5.59316406 13.2421875 6.8359375 C15 9 15 9 15 11 C13.68 10.67 12.36 10.34 11 10 C11.66 11.65 12.32 13.3 13 15 C11 13.1875 11 13.1875 9 11 C9 10.01 9 9.02 9 8 C7.68 7.34 6.36 6.68 5 6 C5 4.68 5 3.36 5 2 C3.35 2 1.7 2 0 2 C0 1.34 0 0.68 0 0 Z " fill="#7B70EB" transform="translate(801,279)"/>
<path d="M0 0 C4.29221231 0.10946343 8.5835149 0.24018895 12.875 0.375 C14.70998047 0.42140625 14.70998047 0.42140625 16.58203125 0.46875 C17.74863281 0.50742187 18.91523438 0.54609375 20.1171875 0.5859375 C21.19597168 0.6173584 22.27475586 0.6487793 23.38623047 0.68115234 C26 1 26 1 28 3 C18.76 3 9.52 3 0 3 C0 2.01 0 1.02 0 0 Z " fill="#6182E1" transform="translate(379,652)"/>
<path d="M0 0 C2 0 2 0 4.125 1.3125 C7.07981372 5.54773299 6.31097408 9.98986202 6 15 C5.01 15.33 4.02 15.66 3 16 C2.01 10.72 1.02 5.44 0 0 Z " fill="#6294EF" transform="translate(222,601)"/>
<path d="M0 0 C4.29 0.33 8.58 0.66 13 1 C12.34 2.32 11.68 3.64 11 5 C6.41632334 6.45844257 3.39230803 5.77783897 -1 4 C-0.67 2.68 -0.34 1.36 0 0 Z " fill="#7D7DE4" transform="translate(710,238)"/>
<path d="M0 0 C-1.64548828 0.61488281 -1.64548828 0.61488281 -3.32421875 1.2421875 C-4.77865686 1.78642886 -6.23308333 2.33070133 -7.6875 2.875 C-8.40873047 3.14441406 -9.12996094 3.41382813 -9.87304688 3.69140625 C-13.59946483 5.08668603 -17.31324655 6.50202917 -21 8 C-21 7.34 -21 6.68 -21 6 C-20.34 6 -19.68 6 -19 6 C-19 5.01 -19 4.02 -19 3 C-18.34 3 -17.68 3 -17 3 C-17 2.34 -17 1.68 -17 1 C-14.91835982 0.63601378 -12.83459438 0.28416713 -10.75 -0.0625 C-9.00976562 -0.35833984 -9.00976562 -0.35833984 -7.234375 -0.66015625 C-4.37477376 -0.9606216 -2.66674071 -0.9439206 0 0 Z " fill="#5988D2" transform="translate(367,326)"/>
<path d="M0 0 C0.33 0.66 0.66 1.32 1 2 C3.02463255 2.65213292 3.02463255 2.65213292 5 3 C5 3.66 5 4.32 5 5 C4.01 5 3.02 5 2 5 C2.66 6.65 3.32 8.3 4 10 C2.68 10 1.36 10 0 10 C0 10.99 0 11.98 0 13 C-0.99 13 -1.98 13 -3 13 C-3 12.34 -3 11.68 -3 11 C-2.34 11 -1.68 11 -1 11 C-1.350625 10.2575 -1.70125 9.515 -2.0625 8.75 C-3.05526066 5.83790206 -3.1541971 4.78930967 -2 2 C-1.34 1.34 -0.68 0.68 0 0 Z " fill="#9388F2" transform="translate(830,654)"/>
<path d="M0 0 C2.5 1.375 2.5 1.375 5 3 C5 3.66 5 4.32 5 5 C5.928125 5.4640625 5.928125 5.4640625 6.875 5.9375 C8.25 6.625 9.625 7.3125 11 8 C10.67 8.66 10.34 9.32 10 10 C6.65626525 9.44271087 3.96687001 8.64826111 1 7 C1 7.66 1 8.32 1 9 C0.34 9 -0.32 9 -1 9 C-1.33 7.68 -1.66 6.36 -2 5 C-1.01 5 -0.02 5 1 5 C0.67 3.35 0.34 1.7 0 0 Z " fill="#618EEB" transform="translate(328,632)"/>
<path d="M0 0 C1.64951226 0.95198711 3.29451508 1.91179145 4.9375 2.875 C5.85402344 3.40867187 6.77054688 3.94234375 7.71484375 4.4921875 C10 6 10 6 11 8 C10.34 8 9.68 8 9 8 C9 8.99 9 9.98 9 11 C8.01 10.67 7.02 10.34 6 10 C5.67 9.34 5.34 8.68 5 8 C4.01 8.33 3.02 8.66 2 9 C1.01 7.35 0.02 5.7 -1 4 C-0.34 4 0.32 4 1 4 C0.67 2.68 0.34 1.36 0 0 Z " fill="#7F78E3" transform="translate(779,259)"/>
<path d="M0 0 C0 0.66 0 1.32 0 2 C0.99 2.66 1.98 3.32 3 4 C-2.07250491 5.48676868 -5.78795945 6.53992107 -11 5 C-12.35638727 4.03150046 -13.69393631 3.03536246 -15 2 C-13.06302033 1.66365624 -11.12539514 1.33102835 -9.1875 1 C-7.56908203 0.7215625 -7.56908203 0.7215625 -5.91796875 0.4375 C-3 0 -3 0 0 0 Z " fill="#5B91E7" transform="translate(366,238)"/>
<path d="M0 0 C1.32 0.66 2.64 1.32 4 2 C4 2.66 4 3.32 4 4 C6.31 4 8.62 4 11 4 C11.33 5.32 11.66 6.64 12 8 C8.8040576 9.00772958 7.42822437 9.19442012 4.32421875 7.78515625 C3.45410156 7.21667969 2.58398438 6.64820313 1.6875 6.0625 C0.80449219 5.49660156 -0.07851563 4.93070312 -0.98828125 4.34765625 C-1.65214844 3.90292969 -2.31601562 3.45820313 -3 3 C-2.01 2.67 -1.02 2.34 0 2 C0 1.34 0 0.68 0 0 Z " fill="#7C78E4" transform="translate(739,333)"/>
<path d="M0 0 C-3.9700218 4.21814817 -8.30840284 7.61227103 -13 11 C-13.66 9.68 -14.32 8.36 -15 7 C-13.02 6.67 -11.04 6.34 -9 6 C-9 4.35 -9 2.7 -9 1 C-5.8035914 -0.06546953 -3.34252724 -0.07427838 0 0 Z " fill="#6A73D3" transform="translate(494,762)"/>
<path d="M0 0 C0 0.33 0 0.66 0 1 C-3.63 1.66 -7.26 2.32 -11 3 C-11 3.66 -11 4.32 -11 5 C-12.32 5 -13.64 5 -15 5 C-15 5.66 -15 6.32 -15 7 C-16.65 7 -18.3 7 -20 7 C-18.68713796 3.06141389 -16.93900524 2.05034865 -13.4765625 -0.05859375 C-9.00085791 -1.75992625 -4.60793884 -0.85551806 0 0 Z " fill="#847CF3" transform="translate(743,730)"/>
<path d="M0 0 C0.33 0 0.66 0 1 0 C1.55253221 7.35174806 0.51064108 12.511583 -3 19 C-3.66 18.34 -4.32 17.68 -5 17 C-4.69602069 11.07240336 -2.09964316 5.48836955 0 0 Z " fill="#5A95DB" transform="translate(235,332)"/>
<path d="M0 0 C4.95 0 9.9 0 15 0 C14.01 0.33 13.02 0.66 12 1 C12.33 1.99 12.66 2.98 13 4 C9.37 4.33 5.74 4.66 2 5 C2.33 4.01 2.66 3.02 3 2 C2.01 1.34 1.02 0.68 0 0 Z " fill="#857DEA" transform="translate(708,734)"/>
<path d="M0 0 C0.99 0 1.98 0 3 0 C4.26332183 4.21107278 4.00441956 6.5456709 2.0625 10.375 C1.39025121 11.59188424 0.70765749 12.8033603 0 14 C-0.99 13.67 -1.98 13.34 -3 13 C-2.68991116 11.39536551 -2.37683713 9.79130769 -2.0625 8.1875 C-1.88847656 7.29417969 -1.71445312 6.40085937 -1.53515625 5.48046875 C-1 3 -1 3 0 0 Z " fill="#67A0F5" transform="translate(313,356)"/>
<path d="M0 0 C0 0.66 0 1.32 0 2 C-0.66 2 -1.32 2 -2 2 C-2.1546875 2.9590625 -2.1546875 2.9590625 -2.3125 3.9375 C-2.539375 4.618125 -2.76625 5.29875 -3 6 C-5.88211302 6.96070434 -7.69850044 7.10581883 -10.6875 7.0625 C-11.89986328 7.04896484 -11.89986328 7.04896484 -13.13671875 7.03515625 C-14.05904297 7.01775391 -14.05904297 7.01775391 -15 7 C-15 6.01 -15 5.02 -15 4 C-9.555 3.505 -9.555 3.505 -4 3 C-4 2.34 -4 1.68 -4 1 C-2 0 -2 0 0 0 Z " fill="#859AFC" transform="translate(392,845)"/>
<path d="M0 0 C0.4125 0.474375 0.825 0.94875 1.25 1.4375 C3.2004723 3.17899313 4.48852019 3.46553219 7 4 C5.421924 4.84324672 3.8372958 5.67423918 2.25 6.5 C0.92742188 7.19609375 0.92742188 7.19609375 -0.421875 7.90625 C-3 9 -3 9 -7 9 C-6.67 8.34 -6.34 7.68 -6 7 C-5.34 7.33 -4.68 7.66 -4 8 C-4 7.34 -4 6.68 -4 6 C-4.66 5.67 -5.32 5.34 -6 5 C-2.25 2 -2.25 2 0 2 C0 1.34 0 0.68 0 0 Z " fill="#686BC9" transform="translate(512,742)"/>
<path d="M0 0 C4.95 0 9.9 0 15 0 C15 0.99 15 1.98 15 3 C9.06 3.495 9.06 3.495 3 4 C3 3.34 3 2.68 3 2 C2.01 2 1.02 2 0 2 C0 1.34 0 0.68 0 0 Z " fill="#8485E6" transform="translate(540,736)"/>
<path d="M0 0 C0.66 0.33 1.32 0.66 2 1 C1.42655063 3.86724686 1.1385485 4.8614515 -1 7 C-2.98821313 7.39764263 -4.98944339 7.73775349 -7 8 C-7.33 6.68 -7.66 5.36 -8 4 C-6.71349294 3.30289269 -5.42059335 2.61757124 -4.125 1.9375 C-3.40570312 1.55464844 -2.68640625 1.17179688 -1.9453125 0.77734375 C-1.30335938 0.52082031 -0.66140625 0.26429688 0 0 Z " fill="#817AE8" transform="translate(738,642)"/>
<path d="M0 0 C0.8864727 3.14533647 0.91215171 4.85814412 0 8 C0 8.99 0 9.98 0 11 C-2.64738916 12.4606285 -3.89448334 13 -7 13 C-5.35821735 8.22390502 -2.73453298 4.20617096 0 0 Z " fill="#5596FA" transform="translate(252,308)"/>
<path d="M0 0 C8.4 2.30588235 8.4 2.30588235 12 4 C12.33 4.66 12.66 5.32 13 6 C13.99 6.33 14.98 6.66 16 7 C16 7.33 16 7.66 16 8 C10.24448332 8.46044133 7.54655744 7.51324893 3 4 C2.01 3.34 1.02 2.68 0 2 C0 1.34 0 0.68 0 0 Z " fill="#709FFA" transform="translate(302,715)"/>
<path d="M0 0 C3.10190545 4.65285818 4.33846504 9.41532676 4 15 C4.66 15 5.32 15 6 15 C6 16.98 6 18.96 6 21 C5.34 21 4.68 21 4 21 C-0.59225513 7.55125285 -0.59225513 7.55125285 0 0 Z " fill="#6CA3FB" transform="translate(305,591)"/>
<path d="M0 0 C5.04095775 0.44479039 7.41115715 2.66154153 11 6 C11 6.33 11 6.66 11 7 C9.02 7 7.04 7 5 7 C5 6.34 5 5.68 5 5 C2.03 4.505 2.03 4.505 -1 4 C-0.67 2.68 -0.34 1.36 0 0 Z " fill="#8F89FB" transform="translate(794,272)"/>
<path d="M0 0 C0.90105469 0.00902344 1.80210937 0.01804688 2.73046875 0.02734375 C3.41753906 0.03894531 4.10460937 0.05054688 4.8125 0.0625 C4.8125 0.7225 4.8125 1.3825 4.8125 2.0625 C4.17441406 2.19527344 3.53632813 2.32804688 2.87890625 2.46484375 C1.63947266 2.72974609 1.63947266 2.72974609 0.375 3 C-0.44871094 3.17402344 -1.27242188 3.34804687 -2.12109375 3.52734375 C-4.16411204 3.87002994 -4.16411204 3.87002994 -5.1875 5.0625 C-6.85367115 5.10313832 -8.52138095 5.105221 -10.1875 5.0625 C-9.375 3.125 -9.375 3.125 -8.1875 1.0625 C-5.17259443 0.05753148 -3.14568308 -0.04085303 0 0 Z " fill="#6AABFD" transform="translate(341.1875,242.9375)"/>
<path d="M0 0 C2.31 0.33 4.62 0.66 7 1 C7.33 1.99 7.66 2.98 8 4 C9.87387216 4.80212628 9.87387216 4.80212628 12.0625 5.1875 C12.79597656 5.34605469 13.52945312 5.50460937 14.28515625 5.66796875 C14.85105469 5.77753906 15.41695313 5.88710938 16 6 C16 6.66 16 7.32 16 8 C3.33029613 4.92482916 3.33029613 4.92482916 -2 3 C-1.34 2.01 -0.68 1.02 0 0 Z " fill="#5474BB" transform="translate(324,725)"/>
<path d="M0 0 C0 0.66 0 1.32 0 2 C-1.65 2.33 -3.3 2.66 -5 3 C-5 3.99 -5 4.98 -5 6 C-6.98 6.33 -8.96 6.66 -11 7 C-11 4 -11 4 -8.875 1.8125 C-5.58442458 -0.2619932 -3.81365679 -0.35475877 0 0 Z " fill="#8981F0" transform="translate(774,717)"/>
<path d="M0 0 C0.66 0 1.32 0 2 0 C2.33 1.65 2.66 3.3 3 5 C3.66 5 4.32 5 5 5 C5.99 6.98 6.98 8.96 8 11 C6.35 11 4.7 11 3 11 C-1.06153846 4.6 -1.06153846 4.6 -0.75 1.5625 C-0.5025 1.046875 -0.255 0.53125 0 0 Z " fill="#69A3EF" transform="translate(243,655)"/>
<path d="M0 0 C2.89932357 2.39509338 3.50168276 4.31245243 4 8 C1.36 7.67 -1.28 7.34 -4 7 C-4 6.01 -4 5.02 -4 4 C-4.66 3.67 -5.32 3.34 -6 3 C-4.02 2.01 -2.04 1.02 0 0 Z " fill="#8382F7" transform="translate(728,323)"/>
<path d="M0 0 C3.22795322 0.95966177 4.74128361 1.66099231 6.8125 4.375 C8 7 8 7 8 11 C6.68 10.34 5.36 9.68 4 9 C4 8.01 4 7.02 4 6 C3.34 6 2.68 6 2 6 C0.375 4.5 0.375 4.5 -1 3 C-0.67 2.01 -0.34 1.02 0 0 Z " fill="#958EF5" transform="translate(827,307)"/>
<path d="M0 0 C2.97 0 5.94 0 9 0 C6.14723863 2.93200474 3.34920216 5.64315404 0 8 C0 7.34 0 6.68 0 6 C-0.66 5.67 -1.32 5.34 -2 5 C-0.68 5 0.64 5 2 5 C0.68 4.01 -0.64 3.02 -2 2 C-1.34 2 -0.68 2 0 2 C0 1.34 0 0.68 0 0 Z " fill="#676ACC" transform="translate(496,753)"/>
<path d="M0 0 C3.25724605 0.56159415 5.03790401 1.29043887 7 4 C7.6875 7.1875 7.6875 7.1875 8 10 C4.20401451 8.50871999 2.28279601 6.34266559 0 3 C0 2.01 0 1.02 0 0 Z " fill="#6A9EFB" transform="translate(321,627)"/>
<path d="M0 0 C2.3129482 2.3129482 2.49580975 3.47904875 3.125 6.625 C3.29257812 7.44226563 3.46015625 8.25953125 3.6328125 9.1015625 C3.81457031 10.04128906 3.81457031 10.04128906 4 11 C4.66 11 5.32 11 6 11 C6.33 11.99 6.66 12.98 7 14 C5.35 14.33 3.7 14.66 2 15 C1.855625 13.9275 1.71125 12.855 1.5625 11.75 C1.10155011 8.23980078 1.10155011 8.23980078 0.4375 5.8125 C0 4 0 4 0 0 Z " fill="#5792FB" transform="translate(305,601)"/>
<path d="M0 0 C0.66 0.33 1.32 0.66 2 1 C1.04855402 2.81612488 0.08863067 4.62781081 -0.875 6.4375 C-1.40867187 7.44683594 -1.94234375 8.45617187 -2.4921875 9.49609375 C-4 12 -4 12 -6 13 C-6.33 11.68 -6.66 10.36 -7 9 C-6.01 9 -5.02 9 -4 9 C-4.66 8.67 -5.32 8.34 -6 8 C-6 7.01 -6 6.02 -6 5 C-4.68 5 -3.36 5 -2 5 C-2.33 3.68 -2.66 2.36 -3 1 C-2.01 0.67 -1.02 0.34 0 0 Z " fill="#756CE1" transform="translate(839,650)"/>
<path d="M0 0 C1.14889133 3.93905597 1.52582695 7.93565958 2 12 C0.68 12.33 -0.64 12.66 -2 13 C-2.33 9.37 -2.66 5.74 -3 2 C-2.01 2 -1.02 2 0 2 C0 1.34 0 0.68 0 0 Z " fill="#8880F5" transform="translate(775,384)"/>
<path d="M0 0 C1.98 0 3.96 0 6 0 C0.85714286 6.57142857 0.85714286 6.57142857 -3 8 C-3.33 6.35 -3.66 4.7 -4 3 C-2.68 2.67 -1.36 2.34 0 2 C0 1.34 0 0.68 0 0 Z " fill="#6975D4" transform="translate(464,782)"/>
<path d="M0 0 C2.64 0 5.28 0 8 0 C8 0.66 8 1.32 8 2 C8.99 2 9.98 2 11 2 C11 2.66 11 3.32 11 4 C7.04 4 3.08 4 -1 4 C-0.67 2.68 -0.34 1.36 0 0 Z " fill="#8484F8" transform="translate(532,736)"/>
<path d="M0 0 C-0.350625 0.598125 -0.70125 1.19625 -1.0625 1.8125 C-2.33304698 4.10813214 -2.33304698 4.10813214 -1 7 C-2.65 7.66 -4.3 8.32 -6 9 C-7 8 -7 8 -7.25 5.625 C-7 3 -7 3 -5.75 1.1875 C-4 0 -4 0 0 0 Z " fill="#887FF8" transform="translate(811,686)"/>
<path d="M0 0 C0.66 0 1.32 0 2 0 C4.45029331 5.71735105 5.33266291 9.79029227 5 16 C4.67 16 4.34 16 4 16 C4 14.35 4 12.7 4 11 C3.34 11 2.68 11 2 11 C1.01 7.7 0.02 4.4 -1 1 C-0.67 0.67 -0.34 0.34 0 0 Z " fill="#948CFB" transform="translate(769,369)"/>
<path d="M0 0 C0 0.99 0 1.98 0 3 C-6.93 3 -13.86 3 -21 3 C-21 2.67 -21 2.34 -21 2 C-17.87517892 1.66497499 -14.75011534 1.33226801 -11.625 1 C-10.73554687 0.90460937 -9.84609375 0.80921875 -8.9296875 0.7109375 C-8.07890625 0.62070312 -7.228125 0.53046875 -6.3515625 0.4375 C-5.17327881 0.31181641 -5.17327881 0.31181641 -3.97119141 0.18359375 C-2 0 -2 0 0 0 Z " fill="#7C77EA" transform="translate(705,652)"/>
<path d="M0 0 C0.33 0 0.66 0 1 0 C1.2475 1.27875 1.495 2.5575 1.75 3.875 C2.75294525 8.46093082 4.3485247 12.62666891 6.1953125 16.93359375 C7 19 7 19 7 21 C6.01 21 5.02 21 4 21 C3 18 3 18 4 15 C3.34 15 2.68 15 2 15 C0.2520497 9.75614911 -0.19392201 5.52677733 0 0 Z " fill="#446FBF" transform="translate(307,591)"/>
<path d="M0 0 C-0.33 1.32 -0.66 2.64 -1 4 C-4.73486879 4.5745952 -8.21293268 5 -12 5 C-12 4.34 -12 3.68 -12 3 C-10.3789897 2.30314502 -8.75303934 1.61777139 -7.125 0.9375 C-6.22007812 0.55464844 -5.31515625 0.17179688 -4.3828125 -0.22265625 C-2 -1 -2 -1 0 0 Z " fill="#5695F9" transform="translate(339,247)"/>
<path d="M0 0 C0.71285156 0.13277344 1.42570312 0.26554688 2.16015625 0.40234375 C7.43010955 1.37405788 12.6880905 2.2917454 18 3 C16 5 16 5 14.0546875 5.1953125 C12.03645833 5.13020833 10.01822917 5.06510417 8 5 C8 4.34 8 3.68 8 3 C5.03 2.67 2.06 2.34 -1 2 C-0.67 1.34 -0.34 0.68 0 0 Z " fill="#779AFB" transform="translate(332,728)"/>
<path d="M0 0 C0.99 0.33 1.98 0.66 3 1 C1.33784732 2.33895632 -0.32963607 3.67130142 -2 5 C-2.721875 5.5775 -3.44375 6.155 -4.1875 6.75 C-6 8 -6 8 -8 8 C-8 7.34 -8 6.68 -8 6 C-8.99 5.67 -9.98 5.34 -11 5 C-8.64561267 3.57055055 -7.51967567 2.91338739 -4.75 3.375 C-3.88375 3.684375 -3.88375 3.684375 -3 4 C-3 3.34 -3 2.68 -3 2 C-2.01 2 -1.02 2 0 2 C0 1.34 0 0.68 0 0 Z " fill="#6B64D9" transform="translate(785,710)"/>
<path d="M0 0 C0.33 0.66 0.66 1.32 1 2 C1.66 2 2.32 2 3 2 C3 5.3 3 8.6 3 12 C2.34 11.67 1.68 11.34 1 11 C0.34 12.32 -0.32 13.64 -1 15 C-2.50416548 11.99166904 -1.60839737 9.65038422 -1.0625 6.375 C-0.86785156 5.18648437 -0.67320312 3.99796875 -0.47265625 2.7734375 C-0.31667969 1.85820313 -0.16070313 0.94296875 0 0 Z " fill="#7A70D7" transform="translate(773,583)"/>
<path d="M0 0 C3.68725859 0.99655638 4.79351462 1.6582311 6.8125 5 C8 8 8 8 8 10 C6.68 9.67 5.36 9.34 4 9 C4 8.01 4 7.02 4 6 C3.34 6 2.68 6 2 6 C1.34 4.02 0.68 2.04 0 0 Z " fill="#908AF7" transform="translate(817,294)"/>
<path d="M0 0 C0.33 0.66 0.66 1.32 1 2 C2.65 1.34 4.3 0.68 6 0 C2.67692308 4.8 2.67692308 4.8 -0.75 5.8125 C-1.4925 5.874375 -2.235 5.93625 -3 6 C-3 5.34 -3 4.68 -3 4 C-4.32 4.33 -5.64 4.66 -7 5 C-2.25 0 -2.25 0 0 0 Z " fill="#5A90EA" transform="translate(293,264)"/>
<path d="M0 0 C-2.4279594 2.4279594 -4.92121958 3.49079391 -8 5 C-8.886875 5.5775 -9.77375 6.155 -10.6875 6.75 C-11.450625 7.1625 -12.21375 7.575 -13 8 C-13.99 7.67 -14.98 7.34 -16 7 C-13.71311466 3.56967199 -13.65569356 3.8355871 -10 3 C-9.195625 2.484375 -8.39125 1.96875 -7.5625 1.4375 C-4.74667622 -0.14210846 -3.17038287 -0.2717471 0 0 Z " fill="#6DA6FC" transform="translate(327,249)"/>
<path d="M0 0 C0.33 0.99 0.66 1.98 1 3 C0.01 3.495 0.01 3.495 -1 4 C-1.33 4.99 -1.66 5.98 -2 7 C-3.98 7.33 -5.96 7.66 -8 8 C-8 6.68 -8 5.36 -8 4 C-5.38369776 2.09080647 -3.07366722 1.02455574 0 0 Z " fill="#8489F9" transform="translate(497,755)"/>
<path d="M0 0 C2.125 0.375 2.125 0.375 4 1 C4 1.66 4 2.32 4 3 C3.34 3 2.68 3 2 3 C2 3.66 2 4.32 2 5 C2.66 5 3.32 5 4 5 C4 5.66 4 6.32 4 7 C2.02 7.33 0.04 7.66 -2 8 C-2.125 5.125 -2.125 5.125 -2 2 C-1.34 1.34 -0.68 0.68 0 0 Z " fill="#5F92F7" transform="translate(340,642)"/>
<path d="M0 0 C0.99 0.33 1.98 0.66 3 1 C2.01 1.33 1.02 1.66 0 2 C-0.33 3.65 -0.66 5.3 -1 7 C-3.64 7.66 -6.28 8.32 -9 9 C-9 7 -9 7 -7.8125 5.5625 C-5.68959173 3.73240666 -3.4219133 2.40216033 -1 1 C-0.67 0.67 -0.34 0.34 0 0 Z " fill="#67A2F7" transform="translate(333,337)"/>
<path d="M0 0 C0.66 0.33 1.32 0.66 2 1 C1.34 2.65 0.68 4.3 0 6 C-3.3 6 -6.6 6 -10 6 C-6.66754467 3.5006585 -3.79082803 1.6481861 0 0 Z " fill="#5F8CE0" transform="translate(311,253)"/>
<path d="M0 0 C1.81325551 0.11351517 3.62563357 0.24112961 5.4375 0.375 C6.95150391 0.47941406 6.95150391 0.47941406 8.49609375 0.5859375 C9.73552734 0.79089844 9.73552734 0.79089844 11 1 C11.33 1.66 11.66 2.32 12 3 C11.01 3 10.02 3 9 3 C9 3.66 9 4.32 9 5 C8.01 5 7.02 5 6 5 C6 4.34 6 3.68 6 3 C4.35 3 2.7 3 1 3 C0.67 2.01 0.34 1.02 0 0 Z " fill="#7C7CE1" transform="translate(724,240)"/>
<path d="M0 0 C2 1 2 1 4 4 C2.3767313 4.6708712 0.75132422 5.33657029 -0.875 6 C-2.23238281 6.556875 -2.23238281 6.556875 -3.6171875 7.125 C-6 8 -6 8 -8 8 C-8 7.34 -8 6.68 -8 6 C-6.35 5.67 -4.7 5.34 -3 5 C-3 4.01 -3 3.02 -3 2 C-2.01 1.34 -1.02 0.68 0 0 Z " fill="#6E65CD" transform="translate(761,721)"/>
<path d="M0 0 C0.66 0 1.32 0 2 0 C2.33 0.66 2.66 1.32 3 2 C3.99 2 4.98 2 6 2 C7.6875 3.5 7.6875 3.5 9 5 C8.67 5.99 8.34 6.98 8 8 C5.50638429 6.79618552 3.31856917 5.54571278 1 4 C1 3.34 1 2.68 1 2 C0.34 1.67 -0.32 1.34 -1 1 C-0.67 0.67 -0.34 0.34 0 0 Z " fill="#5984DC" transform="translate(273,695)"/>
<path d="M0 0 C2.31 0 4.62 0 7 0 C7.20086443 3.71599191 7.1519437 4.77208445 5 8 C2 4.25 2 4.25 2 2 C1.34 2 0.68 2 0 2 C0 1.34 0 0.68 0 0 Z " fill="#5993F9" transform="translate(246,658)"/>
<path d="M0 0 C0.66 0 1.32 0 2 0 C2.1799928 5.21979128 1.97094808 9.07262981 0 14 C-0.33 14 -0.66 14 -1 14 C-1.33 10.37 -1.66 6.74 -2 3 C-1.34 3 -0.68 3 0 3 C0 2.01 0 1.02 0 0 Z " fill="#5E90E0" transform="translate(308,370)"/>
<path d="M0 0 C0.66 0.33 1.32 0.66 2 1 C2.6328125 3.06640625 2.6328125 3.06640625 3.125 5.5625 C3.29257812 6.38878906 3.46015625 7.21507812 3.6328125 8.06640625 C3.75398437 8.70449219 3.87515625 9.34257812 4 10 C3.01 10 2.02 10 1 10 C0.67 11.65 0.34 13.3 0 15 C-0.33 15 -0.66 15 -1 15 C-0.67 10.05 -0.34 5.1 0 0 Z " fill="#7571EA" transform="translate(849,350)"/>
<path d="M0 0 C3.3 0.33 6.6 0.66 10 1 C10 1.66 10 2.32 10 3 C5.98195309 3.84098656 2.98196457 4.05404945 -1 3 C-0.67 2.01 -0.34 1.02 0 0 Z " fill="#7EA5FA" transform="translate(349,733)"/>
<path d="M0 0 C2.3125 0.1875 2.3125 0.1875 5 1 C6.8125 3.5625 6.8125 3.5625 8 6 C6.02 6.99 6.02 6.99 4 8 C2.68 5.36 1.36 2.72 0 0 Z " fill="#5B89D8" transform="translate(237,649)"/>
<path d="M0 0 C4.28324091 2.51407619 6.64531705 4.12314139 8 9 C7.34 9 6.68 9 6 9 C5.67 8.34 5.34 7.68 5 7 C3.02477154 5.95191959 1.02518491 4.9479589 -1 4 C-1 1 -1 1 0 0 Z " fill="#8F8EFB" transform="translate(749,340)"/>
<path d="M0 0 C0.33 0.66 0.66 1.32 1 2 C1.66 2.33 2.32 2.66 3 3 C0.36 5.31 -2.28 7.62 -5 10 C-5.66 9.67 -6.32 9.34 -7 9 C-7 8.34 -7 7.68 -7 7 C-6.34 7 -5.68 7 -5 7 C-5 6.34 -5 5.68 -5 5 C-4.01 5 -3.02 5 -2 5 C-2.33 4.01 -2.66 3.02 -3 2 C-2.34 2 -1.68 2 -1 2 C-0.67 1.34 -0.34 0.68 0 0 Z " fill="#5864B1" transform="translate(405,834)"/>
<path d="M0 0 C0.66 0 1.32 0 2 0 C1.34 5.61 0.68 11.22 0 17 C-0.66 17 -1.32 17 -2 17 C-3.6104598 12.9738505 -2.24188781 10.00163851 -1 6 C-0.63729412 4.00511766 -0.29359301 2.0062189 0 0 Z " fill="#746CC7" transform="translate(855,593)"/>
<path d="M0 0 C0.66 0.66 1.32 1.32 2 2 C1.9765625 4.8203125 1.9765625 4.8203125 1.625 8.125 C1.51414062 9.22070312 1.40328125 10.31640625 1.2890625 11.4453125 C1.19367187 12.28835938 1.09828125 13.13140625 1 14 C-1 12 -1 12 -1.23046875 9.6875 C-1.21628906 8.800625 -1.20210937 7.91375 -1.1875 7 C-1.18105469 6.113125 -1.17460938 5.22625 -1.16796875 4.3125 C-1 2 -1 2 0 0 Z " fill="#958BFB" transform="translate(854,376)"/>
<path d="M0 0 C0.66 0.33 1.32 0.66 2 1 C0.56445975 1.50559908 -0.8735202 2.0042749 -2.3125 2.5 C-3.51326172 2.91765625 -3.51326172 2.91765625 -4.73828125 3.34375 C-7 4 -7 4 -10 4 C-9.6875 2.0625 -9.6875 2.0625 -9 0 C-5.49142603 -1.16952466 -3.57280503 -0.76017128 0 0 Z " fill="#6D6FCD" transform="translate(536,739)"/>
<path d="M0 0 C0.99 0.33 1.98 0.66 3 1 C3.33 4.63 3.66 8.26 4 12 C3.34 12 2.68 12 2 12 C0.70756464 7.8803623 -0.26252625 4.33168317 0 0 Z " fill="#5294F8" transform="translate(231,619)"/>
<path d="M0 0 C0.66 0.33 1.32 0.66 2 1 C1.67 3.97 1.34 6.94 1 10 C-1.50298434 7.06171403 -2.46930939 4.82097239 -3 1 C-2.01 0.67 -1.02 0.34 0 0 Z " fill="#9188F9" transform="translate(848,349)"/>
<path d="M0 0 C3.39417765 3.12621626 5.6062718 5.56541027 7 10 C4.69 9.67 2.38 9.34 0 9 C0.185625 8.2575 0.37125 7.515 0.5625 6.75 C0.99203108 4.05009037 0.85122974 2.55368923 0 0 Z " fill="#706CD9" transform="translate(823,298)"/>
<path d="M0 0 C0 1.32 0 2.64 0 4 C-1.3303125 4.3403125 -1.3303125 4.3403125 -2.6875 4.6875 C-6.43380532 6.17188513 -8.33729434 8.02403485 -11 11 C-11.66 10.67 -12.32 10.34 -13 10 C-11.73232923 8.70522938 -10.46073776 7.41429661 -9.1875 6.125 C-8.47980469 5.40570313 -7.77210938 4.68640625 -7.04296875 3.9453125 C-2.89959839 0 -2.89959839 0 0 0 Z " fill="#5997F9" transform="translate(287,273)"/>
<path d="M0 0 C0.53625 0.2475 1.0725 0.495 1.625 0.75 C1.026875 0.976875 0.42875 1.20375 -0.1875 1.4375 C-2.93851888 3.08811133 -3.89984637 4.9472081 -5.375 7.75 C-7.375 6.75 -7.375 6.75 -8.375 3.75 C-2.95961538 -0.31153846 -2.95961538 -0.31153846 0 0 Z " fill="#5B97F9" transform="translate(307.375,259.25)"/>
<path d="M0 0 C0.66 1.32 1.32 2.64 2 4 C1.01 4.33 0.02 4.66 -1 5 C-1.12375 5.804375 -1.2475 6.60875 -1.375 7.4375 C-1.58125 8.283125 -1.7875 9.12875 -2 10 C-2.99 10.495 -2.99 10.495 -4 11 C-4.8125 8.875 -4.8125 8.875 -5 6 C-3.55576519 3.69892439 -1.89127865 1.98353614 0 0 Z " fill="#8175DD" transform="translate(761,620)"/>
<path d="M0 0 C2.50298434 2.93828597 3.46930939 5.17902761 4 9 C3.34 9 2.68 9 2 9 C1.67 9.66 1.34 10.32 1 11 C0.01 8.36 -0.98 5.72 -2 3 C-1.34 3 -0.68 3 0 3 C0 2.01 0 1.02 0 0 Z " fill="#7771D4" transform="translate(842,330)"/>
<path d="M0 0 C2.375 0.1875 2.375 0.1875 5 1 C6.3125 3.5625 6.3125 3.5625 7 6 C4.07120629 5.37240135 1.63904371 4.41377341 -1 3 C-0.67 2.01 -0.34 1.02 0 0 Z " fill="#938CF7" transform="translate(773,257)"/>
<path d="M0 0 C2.64 0.33 5.28 0.66 8 1 C7.67 2.32 7.34 3.64 7 5 C6.34 5 5.68 5 5 5 C5 4.34 5 3.68 5 3 C4.01 3 3.02 3 2 3 C2 3.66 2 4.32 2 5 C0.68 4.34 -0.64 3.68 -2 3 C-1.34 2.01 -0.68 1.02 0 0 Z " fill="#5483D8" transform="translate(262,682)"/>
<path d="M0 0 C-0.66 3.96 -1.32 7.92 -2 12 C-4.63033454 9.36966546 -4.77962372 7.67293796 -5 4 C-2.78947368 0 -2.78947368 0 0 0 Z " fill="#7F7BFA" transform="translate(776,365)"/>
<path d="M0 0 C1.46840567 2.93681134 0.62550555 4.75874399 0 8 C-0.35552611 9.95808699 -0.70960576 11.91643697 -1.0625 13.875 C-1.37456992 15.58341195 -1.68692614 17.29177174 -2 19 C-2.66 19 -3.32 19 -4 19 C-3.52570278 16.01998162 -3.04581304 13.04105713 -2.5625 10.0625 C-2.42779297 9.21236328 -2.29308594 8.36222656 -2.15429688 7.48632812 C-2.02216797 6.67744141 -1.89003906 5.86855469 -1.75390625 5.03515625 C-1.63345947 4.2862915 -1.5130127 3.53742676 -1.38891602 2.76586914 C-1 1 -1 1 0 0 Z " fill="#5484D0" transform="translate(226,360)"/>
<path d="M0 0 C0.66 0.66 1.32 1.32 2 2 C1.625 4.4375 1.625 4.4375 1 7 C1 7.99 1 8.98 1 10 C0.01 10 -0.98 10 -2 10 C-2.25 3.375 -2.25 3.375 0 0 Z " fill="#5395F9" transform="translate(234,345)"/>
<path d="M0 0 C0.556875 0.226875 1.11375 0.45375 1.6875 0.6875 C-2.9375 5.5625 -2.9375 5.5625 -6.3125 6.6875 C-6.6425 5.3675 -6.9725 4.0475 -7.3125 2.6875 C-2.88173077 -0.38942308 -2.88173077 -0.38942308 0 0 Z " fill="#656FC5" transform="translate(438.3125,808.3125)"/>
<path d="M0 0 C2.31 0 4.62 0 7 0 C7 0.99 7 1.98 7 3 C4.03 3.66 1.06 4.32 -2 5 C-2.33 4.01 -2.66 3.02 -3 2 C-0.525 2.495 -0.525 2.495 2 3 C2 2.34 2 1.68 2 1 C1.34 0.67 0.68 0.34 0 0 Z " fill="#7B77DC" transform="translate(730,732)"/>
<path d="M0 0 C0.33 0.66 0.66 1.32 1 2 C1.66 2 2.32 2 3 2 C3 2.66 3 3.32 3 4 C2.34 4 1.68 4 1 4 C0.67 5.32 0.34 6.64 0 8 C-0.99 7.34 -1.98 6.68 -3 6 C-2.42655063 3.13275314 -2.1385485 2.1385485 0 0 Z " fill="#847AF8" transform="translate(830,654)"/>
<path d="M0 0 C2.6875 -0.375 2.6875 -0.375 6 0 C8.06398076 1.823983 9.39041053 3.72763839 11 6 C10.01 6.33 9.02 6.66 8 7 C7.01 6.34 6.02 5.68 5 5 C5 4.01 5 3.02 5 2 C3.35 2 1.7 2 0 2 C0 1.34 0 0.68 0 0 Z " fill="#6966C2" transform="translate(801,279)"/>
<path d="M0 0 C0.99 0 1.98 0 3 0 C3.68707555 2.49064888 4 4.37886292 4 7 C0.34683329 5.75023244 -0.78065836 5.32901247 -3 2 C-2.01 2 -1.02 2 0 2 C0 1.34 0 0.68 0 0 Z " fill="#5989E9" transform="translate(285,702)"/>
<path d="M0 0 C1.32 0 2.64 0 4 0 C3.67 1.32 3.34 2.64 3 4 C2.67 4 2.34 4 2 4 C1.67 7.63 1.34 11.26 1 15 C0.67 15 0.34 15 0 15 C0 10.05 0 5.1 0 0 Z " fill="#827ADC" transform="translate(852,374)"/>
<path d="M0 0 C0.33 0.99 0.66 1.98 1 3 C0.34 3 -0.32 3 -1 3 C-1.33 3.99 -1.66 4.98 -2 6 C-3.32 6 -4.64 6 -6 6 C-5.8125 4.125 -5.8125 4.125 -5 2 C-2.4375 0.75 -2.4375 0.75 0 0 Z " fill="#6CA0FA" transform="translate(347,329)"/>
<path d="M0 0 C0.33 0.66 0.66 1.32 1 2 C-0.61594832 4.04119788 -2.2856382 6.04072937 -4 8 C-4.66 8 -5.32 8 -6 8 C-4.52307692 2.33846154 -4.52307692 2.33846154 -1.875 0.625 C-0.946875 0.315625 -0.946875 0.315625 0 0 Z " fill="#6CADFC" transform="translate(269,285)"/>
<path d="M0 0 C0.99 0.33 1.98 0.66 3 1 C1.54744301 4.82946843 -0.42895561 6.12050295 -4 8 C-4 7.01 -4 6.02 -4 5 C-3.34 5 -2.68 5 -2 5 C-2 3.68 -2 2.36 -2 1 C-1.34 0.67 -0.68 0.34 0 0 Z " fill="#7077D1" transform="translate(444,800)"/>
<path d="M0 0 C0.66 0 1.32 0 2 0 C2 1.98 2 3.96 2 6 C0.02 6.99 0.02 6.99 -2 8 C-2.33 6.02 -2.66 4.04 -3 2 C-2.01 2 -1.02 2 0 2 C0 1.34 0 0.68 0 0 Z " fill="#8A7EF0" transform="translate(801,694)"/>
<path d="M0 0 C0.99 0.33 1.98 0.66 3 1 C3 2.98 3 4.96 3 7 C2.01 7.33 1.02 7.66 0 8 C-0.38063221 5.6739143 -0.71269945 3.33944736 -1 1 C-0.67 0.67 -0.34 0.34 0 0 Z " fill="#60A3F7" transform="translate(229,623)"/>
<path d="M0 0 C1.98 0.66 3.96 1.32 6 2 C5.01 2.33 4.02 2.66 3 3 C3 3.66 3 4.32 3 5 C-2.75 3.25 -2.75 3.25 -5 1 C-2.525 1.495 -2.525 1.495 0 2 C0 1.34 0 0.68 0 0 Z " fill="#7271CD" transform="translate(732,329)"/>
<path d="M0 0 C0.90105469 0.11085938 1.80210937 0.22171875 2.73046875 0.3359375 C3.76107422 0.47902344 3.76107422 0.47902344 4.8125 0.625 C4.8125 0.955 4.8125 1.285 4.8125 1.625 C0.5225 2.285 -3.7675 2.945 -8.1875 3.625 C-8.1875 2.965 -8.1875 2.305 -8.1875 1.625 C-4.73535147 -0.67643236 -3.95270676 -0.51333854 0 0 Z " fill="#527FD1" transform="translate(376.1875,322.375)"/>
<path d="M0 0 C2.97 0.99 5.94 1.98 9 3 C8.34 3.66 7.68 4.32 7 5 C0.53846154 4.53846154 0.53846154 4.53846154 -2 2 C-1.34 2 -0.68 2 0 2 C0 1.34 0 0.68 0 0 Z " fill="#706FCE" transform="translate(761,251)"/>
<path d="M0 0 C1.65 0 3.3 0 5 0 C3.62845496 2.95409701 2.01136276 5.44008376 0 8 C0 5.36 0 2.72 0 0 Z " fill="#62A4FB" transform="translate(236,331)"/>
<path d="M0 0 C0.99 0.33 1.98 0.66 3 1 C2.125 5.75 2.125 5.75 1 8 C0.34 8 -0.32 8 -1 8 C-1.125 2.25 -1.125 2.25 0 0 Z " fill="#69AAF7" transform="translate(240,321)"/>
<path d="M0 0 C3.1875 0.3125 3.1875 0.3125 6 1 C6 1.99 6 2.98 6 4 C3.03 3.67 0.06 3.34 -3 3 C-2.01 2.01 -1.02 1.02 0 0 Z " fill="#5C8EFA" transform="translate(357,653)"/>
<path d="M0 0 C0.66 0.99 1.32 1.98 2 3 C1.67 3.99 1.34 4.98 1 6 C-1.0625 6.6875 -1.0625 6.6875 -3 7 C-2.25 2.25 -2.25 2.25 0 0 Z " fill="#8E86F5" transform="translate(840,644)"/>
<path d="M0 0 C0.99 0.33 1.98 0.66 3 1 C2.34 2.98 1.68 4.96 1 7 C0.34 7 -0.32 7 -1 7 C-1.625 4.625 -1.625 4.625 -2 2 C-1.34 1.34 -0.68 0.68 0 0 Z " fill="#7770D6" transform="translate(842,640)"/>
<path d="M0 0 C0.99 0.33 1.98 0.66 3 1 C1.515 4.96 1.515 4.96 0 9 C-0.66 8.67 -1.32 8.34 -2 8 C-2 6.35 -2 4.7 -2 3 C-1.34 2.67 -0.68 2.34 0 2 C0 1.34 0 0.68 0 0 Z " fill="#6861C9" transform="translate(849,622)"/>
<path d="M0 0 C2.375 0.25 2.375 0.25 5 1 C6.3125 3.0625 6.3125 3.0625 7 5 C5.68 5.33 4.36 5.66 3 6 C2.01 4.02 1.02 2.04 0 0 Z " fill="#6CA6FA" transform="translate(314,619)"/>
<path d="M0 0 C0.33 0.66 0.66 1.32 1 2 C1.99 2.33 2.98 2.66 4 3 C3.67 3.66 3.34 4.32 3 5 C2.34 5 1.68 5 1 5 C0.67 5.99 0.34 6.98 0 8 C-0.66 6.02 -1.32 4.04 -2 2 C-1.34 1.34 -0.68 0.68 0 0 Z " fill="#807AE0" transform="translate(761,352)"/>
<path d="M0 0 C0.99 0.33 1.98 0.66 3 1 C3.33 0.67 3.66 0.34 4 0 C4.66 0 5.32 0 6 0 C6.625 1.8125 6.625 1.8125 7 4 C6.01 5.485 6.01 5.485 5 7 C0 1.125 0 1.125 0 0 Z " fill="#7A77ED" transform="translate(752,346)"/>
<path d="M0 0 C2.625 0.375 2.625 0.375 5 1 C3.625 3 3.625 3 2 5 C1.34 5 0.68 5 0 5 C-0.33 5.66 -0.66 6.32 -1 7 C-1.625 4.625 -1.625 4.625 -2 2 C-1.34 1.34 -0.68 0.68 0 0 Z " fill="#7D76F0" transform="translate(769,255)"/>
<path d="M0 0 C1.2065625 0.0309375 1.2065625 0.0309375 2.4375 0.0625 C0.81410195 1.77134005 -0.85569053 3.43696717 -2.5625 5.0625 C-3.2225 5.0625 -3.8825 5.0625 -4.5625 5.0625 C-3.43829114 0.08386076 -3.43829114 0.08386076 0 0 Z " fill="#6066D0" transform="translate(478.5625,772.9375)"/>
<path d="M0 0 C1.32 0 2.64 0 4 0 C4 0.66 4 1.32 4 2 C3.67 2.33 3.34 2.66 3 3 C2.67 3.66 2.34 4.32 2 5 C0.35 5 -1.3 5 -3 5 C-3 4.34 -3 3.68 -3 3 C-2.34 3 -1.68 3 -1 3 C-0.67 2.01 -0.34 1.02 0 0 Z " fill="#8A8CFA" transform="translate(504,748)"/>
<path d="M0 0 C0 0.66 0 1.32 0 2 C-1.32 2 -2.64 2 -4 2 C-4 2.66 -4 3.32 -4 4 C-5.65 4 -7.3 4 -9 4 C-8.67 3.01 -8.34 2.02 -8 1 C-5.29120665 -0.35439668 -2.99066732 -0.06501451 0 0 Z " fill="#9289FB" transform="translate(732,733)"/>
<path d="M0 0 C0.99 0 1.98 0 3 0 C1.55746343 3.36591866 -0.33264727 5.51047079 -3 8 C-3 6.35 -3 4.7 -3 3 C-2.01 3 -1.02 3 0 3 C0 2.01 0 1.02 0 0 Z " fill="#6D66C3" transform="translate(830,664)"/>
<path d="M0 0 C0.33 0 0.66 0 1 0 C1 3.3 1 6.6 1 10 C-0.32 10 -1.64 10 -3 10 C-2.01 6.7 -1.02 3.4 0 0 Z " fill="#8B7FF8" transform="translate(844,631)"/>
<path d="M0 0 C2.2477975 2.05233685 3.0022242 3.00667261 4 6 C2.35 6.33 0.7 6.66 -1 7 C-1.04254356 5.00045254 -1.04080783 2.99958364 -1 1 C-0.67 0.67 -0.34 0.34 0 0 Z " fill="#928EFB" transform="translate(836,318)"/>
<path d="M0 0 C3.16115776 1.36983503 3.9927092 1.9890638 6 5 C4.02 5 2.04 5 0 5 C-0.33 4.01 -0.66 3.02 -1 2 C-0.67 1.34 -0.34 0.68 0 0 Z " fill="#817CDF" transform="translate(799,274)"/>
<path d="M0 0 C2.9375 0.8125 2.9375 0.8125 6 2 C6.33 2.99 6.66 3.98 7 5 C4.03 4.505 4.03 4.505 1 4 C0.67 2.68 0.34 1.36 0 0 Z " fill="#8682FA" transform="translate(787,266)"/>
<path d="M0 0 C3.93846154 3.32307692 3.93846154 3.32307692 4.25 6.75 C4.1675 7.4925 4.085 8.235 4 9 C3.34 9 2.68 9 2 9 C0.375 6.5 0.375 6.5 -1 4 C-0.34 4 0.32 4 1 4 C0.67 2.68 0.34 1.36 0 0 Z " fill="#817AF0" transform="translate(779,259)"/>
<path d="M0 0 C-0.33 0.66 -0.66 1.32 -1 2 C-3.32156597 2.40729228 -5.6568787 2.74438677 -8 3 C-8 2.01 -8 1.02 -8 0 C-5.13822943 -1.43088528 -3.06624227 -0.59991697 0 0 Z " fill="#7B7FFD" transform="translate(744,249)"/>
<path d="M0 0 C1.98 0 3.96 0 6 0 C4.625 2 4.625 2 3 4 C2.34 4 1.68 4 1 4 C1 4.66 1 5.32 1 6 C0.34 6 -0.32 6 -1 6 C-0.67 4.02 -0.34 2.04 0 0 Z " fill="#787CF9" transform="translate(500,747)"/>
<path d="M0 0 C2.31 0.33 4.62 0.66 7 1 C5.875 2.5625 5.875 2.5625 4 4 C0.8125 3.6875 0.8125 3.6875 -2 3 C-1.34 2.01 -0.68 1.02 0 0 Z " fill="#5B7CD1" transform="translate(324,725)"/>
<path d="M0 0 C0.33 0.99 0.66 1.98 1 3 C0.01 3.33 -0.98 3.66 -2 4 C-2.73323796 6.01508358 -2.73323796 6.01508358 -3 8 C-3.33 8 -3.66 8 -4 8 C-4 6.02 -4 4.04 -4 2 C-2.68 1.34 -1.36 0.68 0 0 Z " fill="#7C77ED" transform="translate(773,599)"/>
<path d="M0 0 C0.33 0 0.66 0 1 0 C1.36923077 7.38461538 1.36923077 7.38461538 -0.5 10.5 C-0.995 10.995 -1.49 11.49 -2 12 C-2.66 11.34 -3.32 10.68 -4 10 C-3.525625 9.278125 -3.05125 8.55625 -2.5625 7.8125 C-1.05847097 5.10524774 -0.43400818 3.03805725 0 0 Z " fill="#9B91FB" transform="translate(774,589)"/>
<path d="M0 0 C0 0.99 0 1.98 0 3 C-2.31 2.67 -4.62 2.34 -7 2 C-7 1.34 -7 0.68 -7 0 C-3.86650268 -1.04449911 -3.01031744 -0.93423645 0 0 Z " fill="#8F8FF4" transform="translate(740,243)"/>
<path d="M0 0 C0.33 1.32 0.66 2.64 1 4 C-2.3 3.67 -5.6 3.34 -9 3 C-5.71299843 1.35649921 -3.52069985 0.58678331 0 0 Z " fill="#5A94E2" transform="translate(349,240)"/>
<path d="M0 0 C-1.65 1.65 -3.3 3.3 -5 5 C-5.33 4.01 -5.66 3.02 -6 2 C-6.99 2.33 -7.98 2.66 -9 3 C-9 2.34 -9 1.68 -9 1 C-5.8035914 -0.06546953 -3.34252724 -0.07427838 0 0 Z " fill="#727CE3" transform="translate(494,762)"/>
<path d="M0 0 C0.33 0.99 0.66 1.98 1 3 C-0.65 4.32 -2.3 5.64 -4 7 C-4 5.02 -4 3.04 -4 1 C-2.68 1.33 -1.36 1.66 0 2 C0 1.34 0 0.68 0 0 Z " fill="#6258B5" transform="translate(807,693)"/>
<path d="M0 0 C0.99 0 1.98 0 3 0 C3.66 1.98 4.32 3.96 5 6 C2.525 5.01 2.525 5.01 0 4 C0 2.68 0 1.36 0 0 Z " fill="#5A90E4" transform="translate(267,688)"/>
<path d="M0 0 C2.15377564 2.62198774 3.40072174 4.64404172 4 8 C2.35 7.67 0.7 7.34 -1 7 C-0.67 4.69 -0.34 2.38 0 0 Z " fill="#527FD7" transform="translate(314,612)"/>
<path d="M0 0 C2 3 2 3 2 7 C1.34 7 0.68 7 0 7 C-0.33 7.66 -0.66 8.32 -1 9 C-1.09765625 2.84765625 -1.09765625 2.84765625 -1 1 C-0.67 0.67 -0.34 0.34 0 0 Z " fill="#9184FB" transform="translate(852,607)"/>
<path d="M0 0 C1.32 0.66 2.64 1.32 4 2 C3.67 2.99 3.34 3.98 3 5 C1.02 4.34 -0.96 3.68 -3 3 C-2.01 2.67 -1.02 2.34 0 2 C0 1.34 0 0.68 0 0 Z " fill="#6F6CCE" transform="translate(739,333)"/>
<path d="M0 0 C0 0.66 0 1.32 0 2 C-0.66 2 -1.32 2 -2 2 C-2.33 3.32 -2.66 4.64 -3 6 C-3.99 6 -4.98 6 -6 6 C-6 5.01 -6 4.02 -6 3 C-5.34 3 -4.68 3 -4 3 C-4 2.34 -4 1.68 -4 1 C-2 0 -2 0 0 0 Z " fill="#818EF3" transform="translate(392,845)"/>
<path d="M0 0 C2.875 -0.1875 2.875 -0.1875 6 0 C6.66 0.99 7.32 1.98 8 3 C6.35 3.33 4.7 3.66 3 4 C3 3.34 3 2.68 3 2 C2.01 2 1.02 2 0 2 C0 1.34 0 0.68 0 0 Z " fill="#6F72C6" transform="translate(540,736)"/>
<path d="M0 0 C0.33 0.99 0.66 1.98 1 3 C0.195625 3.12375 -0.60875 3.2475 -1.4375 3.375 C-2.7059375 3.684375 -2.7059375 3.684375 -4 4 C-4.33 4.66 -4.66 5.32 -5 6 C-5.33 4.68 -5.66 3.36 -6 2 C-4.02 1.34 -2.04 0.68 0 0 Z " fill="#8D82F8" transform="translate(757,723)"/>
<path d="M0 0 C1.32 0.33 2.64 0.66 4 1 C4 1.66 4 2.32 4 3 C4.66 3.33 5.32 3.66 6 4 C4.02 4.99 4.02 4.99 2 6 C0 3 0 3 0 0 Z " fill="#749AFE" transform="translate(263,684)"/>
<path d="M0 0 C0.66 1.32 1.32 2.64 2 4 C0.35 5.65 -1.3 7.3 -3 9 C-3 7.68 -3 6.36 -3 5 C-2.34 5 -1.68 5 -1 5 C-0.67 3.35 -0.34 1.7 0 0 Z " fill="#7C73D3" transform="translate(819,678)"/>
<path d="M0 0 C0.66 0.33 1.32 0.66 2 1 C1.67 1.66 1.34 2.32 1 3 C1.66 3.33 2.32 3.66 3 4 C1.02 4.33 -0.96 4.66 -3 5 C-3.33 4.01 -3.66 3.02 -4 2 C-2.125 0.9375 -2.125 0.9375 0 0 Z " fill="#7E76E4" transform="translate(720,649)"/>
<path d="M0 0 C0.66 0.33 1.32 0.66 2 1 C0.63016497 4.16115776 0.0109362 4.9927092 -3 7 C-2.25 2.25 -2.25 2.25 0 0 Z " fill="#9588FB" transform="translate(755,628)"/>
<path d="M0 0 C0.75 1.75 0.75 1.75 1 4 C-0.9375 6.25 -0.9375 6.25 -3 8 C-3.625 6.125 -3.625 6.125 -4 4 C-3.34 3.34 -2.68 2.68 -2 2 C-1.67 2.33 -1.34 2.66 -1 3 C-0.67 2.01 -0.34 1.02 0 0 Z " fill="#9E98FA" transform="translate(771,603)"/>
<path d="M0 0 C-1.98 1.32 -3.96 2.64 -6 4 C-6.99 3.01 -7.98 2.02 -9 1 C-5.57367167 -0.61798838 -3.61944899 -1.34053666 0 0 Z " fill="#4D79C0" transform="translate(331,345)"/>
<path d="M0 0 C0.33 1.32 0.66 2.64 1 4 C0.01 4.495 0.01 4.495 -1 5 C-1.33 5.66 -1.66 6.32 -2 7 C-2.99 7 -3.98 7 -5 7 C-3.70700306 4.11562221 -2.34058637 2.12780579 0 0 Z " fill="#5191DD" transform="translate(272,280)"/>
<path d="M0 0 C2.475 0.495 2.475 0.495 5 1 C5 1.66 5 2.32 5 3 C5.99 3.33 6.98 3.66 8 4 C5.69 4 3.38 4 1 4 C0.67 2.68 0.34 1.36 0 0 Z " fill="#6EA1FC" transform="translate(319,723)"/>
<path d="M0 0 C2.475 0.99 2.475 0.99 5 2 C5 2.66 5 3.32 5 4 C3.02 4 1.04 4 -1 4 C-0.67 2.68 -0.34 1.36 0 0 Z " fill="#887DF6" transform="translate(777,710)"/>
<path d="M0 0 C2.86724686 0.57344937 3.8614515 0.8614515 6 3 C5.67 3.99 5.34 4.98 5 6 C4.67 5.01 4.34 4.02 4 3 C3.01 3.33 2.02 3.66 1 4 C0.67 2.68 0.34 1.36 0 0 Z " fill="#76A7FD" transform="translate(271,692)"/>
<path d="M0 0 C1.32 0.33 2.64 0.66 4 1 C4 2.32 4 3.64 4 5 C2.68 5 1.36 5 0 5 C0 3.35 0 1.7 0 0 Z " fill="#678DE4" transform="translate(367,651)"/>
<path d="M0 0 C0.33 0.66 0.66 1.32 1 2 C1.66 2 2.32 2 3 2 C2.67 4.31 2.34 6.62 2 9 C-0.29013653 5.5647952 -0.17842973 4.014669 0 0 Z " fill="#5887DB" transform="translate(221,588)"/>
<path d="M0 0 C1.5 1.375 1.5 1.375 3 3 C3 3.66 3 4.32 3 5 C1.02 5.99 1.02 5.99 -1 7 C-1.33 5.68 -1.66 4.36 -2 3 C-1.34 3 -0.68 3 0 3 C0 2.01 0 1.02 0 0 Z " fill="#817CE7" transform="translate(765,358)"/>
<path d="M0 0 C2.475 0.495 2.475 0.495 5 1 C5.33 2.32 5.66 3.64 6 5 C3.5625 4.1875 3.5625 4.1875 1 3 C0.67 2.01 0.34 1.02 0 0 Z " fill="#8078EC" transform="translate(836,324)"/>
</svg>
